<?xml version="1.0" standalone="no"?>
<!DOCTYPE svg PUBLIC "-//W3C//DTD SVG 20010904//EN"
 "http://www.w3.org/TR/2001/REC-SVG-20010904/DTD/svg10.dtd">
<svg version="1.0" xmlns="http://www.w3.org/2000/svg"
 width="1572.000000pt" height="1572.000000pt" viewBox="0 0 1572.000000 1572.000000"
 preserveAspectRatio="xMidYMid meet">
<metadata>
Created by potrace 1.11, written by Peter Selinger 2001-2013
</metadata>
<g transform="translate(0.000000,1572.000000) scale(0.100000,-0.100000)"
fill="#000000" stroke="none">
<path d="M4754 12914 c3 -7 -14 -11 -47 -12 -29 -1 -61 -3 -72 -5 -11 -2 -23
1 -27 7 -6 8 -8 7 -8 -1 0 -7 -7 -10 -15 -7 -10 4 -15 0 -15 -11 0 -9 -4 -13
-10 -10 -5 3 -11 -4 -12 -17 -2 -42 -3 -45 -15 -59 -7 -9 -8 -20 -3 -29 5 -8
3 -22 -6 -35 -8 -12 -11 -25 -7 -28 3 -4 2 -7 -3 -7 -9 0 -13 -16 -14 -63 -1
-10 -6 -15 -12 -11 -7 4 -8 2 -4 -4 4 -6 2 -21 -5 -33 -7 -15 -8 -19 0 -15 7
5 9 1 5 -8 -3 -9 -11 -16 -18 -16 -6 0 -4 -5 4 -10 11 -7 11 -10 2 -10 -7 0
-12 -8 -11 -17 3 -31 -1 -44 -10 -38 -6 3 -8 -6 -5 -20 2 -14 1 -25 -4 -25 -4
0 -9 -8 -10 -17 -1 -10 -3 -32 -5 -50 -2 -17 -9 -38 -16 -47 -7 -8 -10 -20 -7
-25 4 -5 2 -12 -4 -16 -5 -3 -10 -11 -10 -16 0 -6 5 -7 12 -3 7 4 1 -8 -12
-26 -13 -18 -19 -30 -12 -26 7 4 12 3 12 -3 0 -5 -4 -12 -9 -15 -4 -3 -11 -23
-15 -45 -3 -21 -13 -41 -21 -45 -11 -4 -14 -2 -9 7 6 9 5 9 -8 0 -8 -7 -18
-10 -21 -6 -4 3 -7 0 -7 -8 0 -11 -2 -11 -10 1 -6 10 -10 11 -10 3 0 -7 -3
-12 -7 -12 -5 1 -10 0 -13 -1 -20 -7 -40 -7 -40 1 0 6 -5 7 -10 4 -6 -4 -8
-10 -5 -15 3 -5 0 -12 -6 -16 -8 -4 -9 -3 -5 4 9 15 1 15 -25 2 -13 -8 -19 -7
-19 0 0 6 -13 4 -31 -6 -23 -11 -29 -12 -23 -2 5 7 -4 5 -20 -6 -18 -11 -26
-13 -21 -5 3 8 -1 5 -9 -5 -12 -15 -16 -16 -16 -5 0 12 -2 12 -10 -1 -5 -8
-10 -11 -10 -6 0 5 -6 3 -14 -3 -11 -9 -20 -10 -36 -1 -16 8 -20 8 -18 -2 2
-8 -6 -13 -19 -12 -13 1 -23 -2 -23 -6 0 -5 -9 -6 -20 -3 -12 3 -20 0 -20 -6
0 -7 5 -9 12 -5 7 4 8 3 4 -4 -5 -8 -13 -9 -25 -2 -13 6 -24 5 -37 -6 -11 -9
-13 -12 -5 -8 10 5 12 3 7 -5 -6 -9 -11 -9 -22 0 -10 8 -18 9 -27 0 -8 -6 -17
-8 -20 -4 -4 3 -7 1 -7 -5 0 -7 -14 -12 -31 -12 -21 0 -28 -4 -23 -12 5 -8 0
-7 -11 2 -10 8 -16 10 -12 3 11 -18 -31 -27 -51 -11 -15 12 -16 11 -3 -5 13
-16 13 -19 0 -17 -26 4 -40 0 -34 -9 3 -6 -4 -8 -15 -6 -28 5 -41 15 -35 26 3
5 -1 6 -9 3 -12 -4 -16 0 -16 16 0 20 -2 21 -17 9 -11 -9 -14 -10 -9 -2 4 7
-2 20 -13 30 -11 9 -18 20 -15 25 3 5 2 8 -3 7 -20 -3 -34 2 -28 11 3 6 -4 14
-17 19 -13 6 -19 10 -15 10 11 1 -60 71 -73 71 -5 0 -10 7 -10 16 0 9 -9 18
-20 21 -11 3 -17 10 -14 15 3 5 -4 12 -16 15 -16 4 -18 8 -8 14 10 7 10 9 0 9
-16 0 -112 94 -112 110 0 6 -4 8 -10 5 -5 -3 -10 -1 -10 5 0 6 -4 8 -10 5 -5
-3 -7 0 -4 8 3 9 -3 17 -17 20 -15 4 -20 11 -15 22 3 10 2 14 -5 9 -12 -7 -51
30 -42 40 4 3 -2 6 -13 6 -16 0 -17 2 -4 10 12 8 12 10 -5 11 -11 0 -30 2 -42
5 -18 3 -21 0 -16 -14 6 -15 5 -15 -10 -3 -12 9 -17 10 -17 2 0 -7 -4 -10 -9
-7 -5 3 -12 -1 -15 -10 -3 -8 -10 -13 -15 -10 -5 4 -17 -1 -25 -10 -9 -9 -16
-11 -16 -4 0 6 -5 8 -10 5 -6 -4 -8 -11 -4 -16 3 -6 0 -10 -7 -8 -28 3 -40 -1
-33 -13 5 -8 2 -9 -9 -5 -10 3 -17 2 -17 -4 0 -6 -4 -7 -10 -4 -5 3 -10 1 -10
-5 0 -6 -5 -8 -10 -5 -6 3 -13 -1 -16 -9 -3 -9 -10 -13 -15 -10 -5 3 -9 0 -9
-7 0 -8 -4 -8 -15 1 -13 11 -14 10 -9 -5 5 -13 4 -16 -4 -11 -7 4 -12 2 -12
-4 0 -7 -6 -10 -14 -7 -14 6 -40 -15 -31 -24 2 -3 -5 -6 -17 -6 -12 -1 -25 -8
-29 -15 -5 -7 -9 -9 -9 -4 0 6 -7 1 -16 -10 -8 -10 -13 -13 -9 -7 4 9 1 11
-10 7 -9 -4 -14 -9 -11 -12 8 -7 -78 -51 -88 -44 -5 3 -7 1 -4 -4 7 -11 -11
-28 -36 -32 -11 -2 -26 -12 -35 -22 -9 -11 -23 -20 -31 -22 -8 -2 -25 -13 -38
-26 -12 -13 -27 -20 -32 -17 -6 3 -10 -1 -10 -9 0 -9 -6 -15 -12 -14 -7 2 -12
-2 -11 -8 1 -8 -6 -10 -19 -6 -14 3 -19 1 -14 -6 7 -11 -6 -17 -27 -13 -5 1
-6 -3 -3 -8 3 -5 -2 -12 -11 -15 -15 -6 -15 -8 -3 -16 11 -7 12 -10 2 -10 -8
0 -10 -5 -5 -12 8 -13 13 -33 15 -55 1 -7 5 -13 9 -13 4 0 6 -9 4 -21 -3 -15
0 -19 10 -15 9 3 12 0 8 -9 -3 -8 -10 -12 -17 -8 -6 4 -5 -1 3 -10 7 -9 10
-17 5 -17 -4 0 1 -7 12 -16 10 -8 12 -12 4 -8 -13 7 -13 5 -2 -9 8 -9 11 -21
7 -27 -3 -5 -2 -10 4 -10 6 0 8 -7 5 -15 -4 -8 -1 -15 5 -15 6 0 8 -7 5 -15
-4 -8 -2 -15 4 -15 5 0 8 -11 7 -25 -2 -14 1 -25 7 -25 5 0 8 -11 6 -24 -1
-13 4 -31 12 -42 13 -16 13 -17 0 -9 -9 5 -8 0 4 -13 11 -12 16 -25 13 -29 -4
-3 -1 -13 6 -21 10 -13 9 -14 -2 -7 -11 6 -10 2 2 -15 12 -18 14 -27 5 -37 -9
-11 -7 -12 7 -7 13 5 16 4 11 -4 -4 -7 -4 -18 1 -24 11 -19 12 -38 2 -38 -6 0
-1 -10 10 -21 16 -17 18 -26 10 -42 -8 -14 -8 -18 0 -13 10 7 15 -5 12 -31 -1
-6 2 -14 7 -17 15 -9 2 -55 -14 -49 -17 6 -19 -13 -1 -21 6 -3 1 -3 -13 0 -14
4 -22 3 -18 -1 6 -6 -26 -45 -37 -45 -3 0 -17 -11 -31 -25 -14 -14 -30 -22
-37 -18 -7 4 -5 -2 3 -12 8 -10 10 -16 3 -12 -6 4 -14 3 -18 -3 -4 -6 -11 -8
-16 -4 -5 3 -8 1 -7 -4 5 -15 -92 -103 -105 -95 -7 4 -6 -1 2 -11 8 -9 10 -16
5 -15 -22 4 -33 -2 -28 -15 3 -8 0 -17 -7 -22 -8 -4 -10 -3 -5 4 5 8 2 10 -9
6 -9 -4 -14 -9 -11 -11 3 -3 -14 -24 -37 -46 -23 -23 -41 -45 -40 -49 2 -4 -2
-8 -8 -8 -5 0 -7 -4 -4 -10 4 -6 -1 -7 -11 -3 -10 4 -15 2 -11 -3 3 -6 -5 -18
-18 -28 -14 -10 -22 -22 -19 -27 3 -5 0 -9 -6 -9 -6 0 -8 -5 -4 -12 5 -8 2 -8
-10 1 -9 8 -16 10 -15 5 4 -21 -2 -34 -16 -34 -8 0 -15 -7 -15 -15 0 -8 -4
-15 -10 -15 -5 0 -10 -8 -10 -17 -1 -17 -1 -17 -11 0 -8 14 -14 15 -24 7 -9
-8 -15 -8 -20 0 -3 6 -10 8 -15 5 -5 -3 -11 -1 -15 4 -3 5 -14 8 -25 6 -11 -2
-20 0 -20 5 0 5 -7 6 -17 3 -12 -5 -14 -3 -8 7 5 9 4 11 -4 6 -6 -4 -19 -2
-28 6 -11 8 -14 9 -10 1 5 -8 -1 -8 -19 2 -15 8 -31 12 -36 9 -4 -3 -8 -1 -8
3 0 5 -8 9 -17 10 -51 4 -71 9 -100 25 -21 11 -33 13 -33 6 0 -6 -10 -3 -22 8
-12 10 -18 13 -14 7 5 -9 2 -11 -8 -7 -9 3 -16 11 -16 17 0 8 -3 8 -11 0 -7
-7 -21 -5 -47 7 -27 13 -39 15 -44 7 -5 -9 -11 -8 -20 2 -11 11 -11 13 1 6 10
-6 12 -4 7 4 -5 7 -14 10 -21 7 -7 -2 -18 1 -25 7 -10 9 -11 9 -5 -3 6 -12 5
-13 -6 -2 -7 6 -21 12 -31 12 -10 0 -18 5 -18 10 0 6 -11 8 -26 4 -18 -5 -25
-3 -20 4 4 7 -1 10 -14 7 -11 -2 -20 0 -20 5 0 4 -9 6 -20 3 -11 -3 -17 -9
-14 -14 3 -5 -2 -12 -10 -15 -9 -3 -13 -10 -10 -15 3 -5 -2 -9 -10 -9 -10 0
-13 -6 -10 -15 4 -8 -1 -17 -10 -21 -9 -3 -16 -12 -16 -20 0 -8 -5 -14 -11
-14 -5 0 -7 -4 -4 -10 3 -5 -2 -10 -12 -10 -15 0 -16 -2 -3 -10 11 -7 11 -10
2 -10 -7 0 -10 -4 -7 -10 3 -5 0 -7 -9 -4 -10 4 -16 -2 -18 -18 -2 -13 -9 -22
-16 -20 -8 1 -11 -2 -8 -7 8 -12 -17 -58 -40 -77 -11 -9 -12 -12 -4 -8 13 7
13 6 0 -12 -8 -10 -21 -25 -28 -33 -7 -7 -10 -21 -7 -29 3 -9 3 -13 -1 -10
-10 11 -32 -15 -26 -31 3 -9 1 -12 -6 -7 -8 5 -12 0 -12 -13 0 -12 -5 -21 -12
-21 -6 0 -8 -3 -5 -7 4 -3 -1 -12 -11 -20 -10 -9 -11 -11 -2 -7 13 7 13 5 2
-9 -8 -9 -10 -22 -6 -29 5 -9 2 -8 -12 2 -10 8 -16 11 -12 6 11 -13 -11 -48
-24 -40 -7 4 -8 3 -4 -5 4 -6 12 -9 17 -5 6 3 5 -3 -3 -15 -7 -12 -19 -21 -27
-21 -11 0 -12 -3 -4 -11 9 -9 6 -17 -8 -32 -10 -11 -18 -26 -17 -31 1 -6 -6
-23 -16 -38 -10 -15 -14 -33 -10 -40 4 -7 4 -10 -1 -6 -9 9 -42 -32 -37 -46 1
-4 -3 -14 -9 -22 -9 -11 -9 -14 1 -14 9 0 9 -4 -1 -17 -8 -9 -9 -14 -4 -11 6
4 21 0 35 -8 14 -7 21 -13 16 -14 -5 0 5 -13 22 -28 18 -16 29 -32 25 -35 -3
-4 4 -7 17 -7 13 0 21 -3 17 -6 -6 -7 41 -54 54 -54 5 0 9 -9 9 -20 0 -11 6
-19 13 -17 6 1 11 -4 9 -12 -3 -12 0 -12 12 -2 13 11 15 10 11 -8 -2 -12 0
-19 6 -16 5 4 9 1 9 -5 0 -6 5 -8 10 -5 6 3 10 1 10 -6 0 -6 21 -32 47 -58 26
-25 41 -37 33 -26 -14 19 -14 19 3 6 9 -7 17 -20 17 -28 0 -8 4 -11 10 -8 5 3
10 1 10 -5 0 -17 28 -42 40 -35 5 3 14 -9 19 -27 5 -18 10 -27 10 -20 1 17 31
-11 31 -29 0 -7 3 -10 6 -6 7 7 33 -15 28 -24 -2 -4 8 -10 21 -13 14 -4 23
-11 20 -17 -4 -5 -1 -17 7 -26 9 -12 9 -15 1 -9 -9 5 -13 -1 -13 -19 0 -14 -4
-24 -8 -21 -4 2 -8 -7 -7 -22 0 -30 -15 -53 -30 -44 -5 2 -5 -1 2 -8 13 -14 6
-43 -8 -34 -5 3 -6 -2 -3 -10 4 -10 1 -16 -7 -16 -12 0 -12 -2 -1 -9 11 -7 11
-11 -1 -22 -7 -8 -12 -20 -9 -28 2 -7 -2 -17 -9 -22 -12 -7 -11 -9 1 -9 11 0
12 -2 3 -8 -7 -4 -14 -22 -16 -40 -2 -18 -7 -35 -12 -40 -5 -4 -5 -1 0 7 5 9
4 12 -2 8 -6 -4 -8 -19 -5 -33 3 -17 1 -25 -5 -21 -6 4 -8 -4 -5 -20 3 -16 1
-24 -5 -20 -6 4 -9 -5 -7 -24 2 -16 0 -28 -5 -25 -5 3 -8 -2 -8 -12 0 -36 -3
-43 -15 -36 -9 5 -9 2 1 -9 10 -13 11 -20 2 -30 -8 -10 -7 -17 2 -27 10 -10 9
-12 -5 -7 -13 5 -16 1 -12 -19 3 -14 0 -24 -7 -24 -8 0 -8 -4 1 -15 10 -12 9
-15 -4 -15 -16 0 -16 -1 -2 -16 18 -17 11 -38 -10 -30 -8 3 -11 0 -7 -9 3 -8
10 -12 17 -8 6 4 5 -1 -2 -10 -8 -9 -11 -21 -8 -26 8 -12 -23 -29 -47 -26 -9
2 -15 -1 -12 -5 3 -5 1 -11 -5 -15 -5 -3 -10 -1 -10 5 0 8 -6 8 -20 0 -11 -6
-25 -8 -30 -5 -6 3 -10 -2 -11 -12 0 -10 -3 -13 -5 -6 -4 9 -12 9 -32 2 -27
-11 -61 -19 -94 -22 -10 -1 -18 -4 -18 -8 0 -4 -11 -6 -25 -4 -14 1 -28 -2
-32 -8 -4 -6 -1 -7 7 -2 9 6 11 4 5 -5 -6 -10 -11 -10 -20 4 -12 15 -13 15
-18 -3 -3 -14 -11 -18 -25 -14 -11 2 -33 -3 -48 -14 -16 -10 -25 -12 -21 -5 9
14 -5 16 -19 3 -5 -6 -22 -12 -39 -15 -16 -2 -30 -5 -30 -6 0 -1 -13 -3 -28
-5 -16 -2 -34 -8 -41 -14 -9 -7 -16 -7 -26 2 -10 10 -12 8 -6 -7 5 -16 4 -17
-9 -6 -11 9 -15 9 -15 1 0 -7 -6 -11 -13 -10 -27 3 -38 -1 -31 -13 6 -10 4
-10 -8 0 -11 9 -18 10 -23 2 -3 -6 -10 -8 -15 -5 -5 3 -12 0 -16 -6 -5 -8 -9
-7 -14 2 -5 7 -8 -7 -7 -34 0 -26 -2 -49 -5 -52 -3 -3 -4 -19 -2 -36 3 -21 0
-28 -8 -23 -7 4 -8 3 -4 -5 12 -18 15 -61 5 -61 -5 0 -9 -5 -9 -11 0 -5 6 -7
13 -3 9 6 9 4 0 -7 -19 -20 -16 -33 5 -18 16 13 16 12 3 -4 -19 -23 -24 -97
-8 -97 8 0 9 -3 1 -8 -15 -10 -15 -323 0 -315 6 4 5 -1 -3 -11 -13 -15 -13
-19 0 -27 8 -5 9 -9 3 -9 -6 0 -9 -20 -7 -52 2 -29 4 -68 4 -85 1 -18 6 -33
12 -33 8 0 8 -3 0 -11 -8 -8 -8 -20 -3 -35 7 -17 6 -24 -3 -24 -9 0 -8 -3 1
-9 8 -4 13 -11 13 -15 -3 -23 0 -30 9 -16 8 12 10 12 10 1 0 -8 3 -11 6 -8 4
3 16 1 28 -5 11 -7 32 -11 45 -9 14 2 21 -1 17 -8 -5 -7 -1 -8 9 -5 8 4 22 1
29 -5 11 -9 15 -9 19 1 4 11 6 10 6 0 1 -7 6 -10 11 -7 6 3 10 2 10 -4 0 -6 7
-7 17 -4 9 4 14 2 11 -3 -4 -5 5 -10 18 -11 56 -6 64 -8 64 -17 0 -6 5 -5 11
1 9 9 15 8 26 -3 17 -16 37 -19 28 -3 -8 13 37 -12 47 -26 5 -6 8 -4 8 5 0 13
2 13 9 1 11 -17 51 -22 51 -7 0 7 3 7 8 0 4 -7 18 -14 32 -15 14 -2 31 -11 38
-19 8 -8 11 -9 7 -2 -8 15 7 16 23 0 7 -7 12 -8 12 -4 0 5 8 2 17 -5 15 -12
16 -12 8 1 -7 12 -6 13 6 3 9 -7 30 -13 47 -15 18 -1 32 -5 32 -9 0 -4 16 -10
36 -13 25 -5 34 -11 30 -22 -3 -8 -1 -14 4 -14 5 0 7 -9 5 -20 -2 -11 0 -20 6
-20 5 0 9 -5 9 -11 0 -5 -6 -7 -12 -3 -10 6 -10 5 -1 -8 7 -8 10 -18 6 -21 -3
-4 -1 -7 5 -7 6 0 9 -10 7 -21 -2 -12 2 -37 10 -56 8 -19 10 -31 4 -27 -8 4
-7 0 0 -14 6 -12 12 -32 13 -46 1 -15 6 -26 11 -26 4 0 5 -5 2 -10 -4 -6 -2
-16 3 -23 5 -7 8 -22 7 -35 -1 -12 4 -27 12 -33 17 -15 18 -43 0 -33 -6 4 -3
-2 7 -14 11 -12 16 -22 11 -22 -4 0 -2 -6 4 -13 6 -8 8 -17 4 -20 -3 -4 -1 -7
6 -7 8 0 9 -5 1 -19 -11 -22 -14 -42 -2 -24 5 8 11 3 19 -13 8 -18 8 -22 0
-17 -7 3 -3 -4 8 -17 12 -14 14 -20 5 -15 -13 8 -13 6 -2 -8 8 -9 11 -20 8
-26 -4 -5 0 -15 7 -23 7 -7 13 -22 13 -33 0 -11 5 -19 11 -18 6 1 9 -6 6 -17
-3 -11 -1 -20 4 -20 12 0 14 -40 2 -62 -5 -10 -17 -18 -25 -18 -8 0 -13 -3
-11 -7 6 -10 -19 -34 -27 -26 -3 4 -6 2 -6 -4 0 -17 -49 -65 -60 -58 -6 4 -10
3 -9 -2 3 -20 -2 -34 -11 -28 -5 3 -10 2 -10 -2 0 -5 -7 -18 -16 -29 -8 -10
-12 -13 -8 -5 5 10 3 12 -5 7 -7 -5 -10 -14 -7 -22 3 -8 0 -11 -8 -8 -8 3 -23
-6 -33 -20 -11 -14 -23 -22 -27 -18 -4 3 -4 -2 0 -13 4 -11 4 -17 0 -13 -4 3
-23 -9 -41 -28 -18 -19 -38 -34 -44 -34 -6 0 -10 -3 -10 -7 3 -20 -2 -34 -10
-28 -6 3 -15 -4 -21 -15 -6 -11 -18 -20 -26 -20 -8 0 -12 -5 -9 -10 3 -6 1
-10 -5 -10 -6 0 -8 -5 -4 -12 5 -8 2 -9 -9 -5 -11 4 -17 1 -17 -7 0 -8 -7 -16
-15 -20 -8 -3 -15 -13 -15 -21 0 -9 -5 -13 -11 -10 -6 4 -13 -2 -16 -14 -3
-12 -12 -21 -19 -21 -8 0 -14 -5 -14 -11 0 -5 -4 -8 -8 -5 -5 3 -9 -1 -9 -9 0
-8 4 -15 9 -15 5 0 6 -5 3 -11 -4 -6 1 -17 11 -25 11 -9 12 -12 4 -8 -10 5 -9
0 4 -14 11 -12 17 -25 13 -28 -3 -3 4 -15 15 -26 15 -15 17 -22 7 -34 -10 -12
-9 -13 3 -9 9 4 18 -1 22 -10 4 -11 2 -14 -7 -9 -14 9 10 -24 33 -44 8 -8 10
-11 3 -8 -6 4 -15 2 -18 -4 -4 -6 -3 -10 2 -9 22 4 32 -2 27 -16 -4 -8 -1 -15
6 -15 7 0 10 -7 6 -16 -4 -10 -2 -13 6 -8 8 5 9 2 5 -9 -4 -10 -2 -16 5 -14 5
1 12 -7 14 -18 1 -11 11 -25 20 -32 10 -7 15 -13 11 -13 -4 0 -3 -9 3 -20 6
-11 15 -18 20 -15 6 4 6 -3 0 -19 -7 -20 -6 -24 5 -19 10 3 15 -2 15 -16 0
-12 7 -24 15 -27 8 -4 15 -11 15 -16 0 -5 8 -17 18 -26 10 -10 11 -12 3 -7
-12 9 -12 7 -2 -13 7 -12 16 -20 22 -17 5 4 9 3 8 -2 -3 -18 14 -52 28 -57 8
-3 11 -10 8 -16 -3 -5 -1 -10 4 -10 6 0 11 -9 11 -21 0 -11 4 -18 9 -15 5 3
15 -2 22 -11 8 -9 9 -14 3 -10 -6 3 -11 0 -11 -7 0 -8 7 -12 15 -8 10 3 13 1
8 -6 -4 -7 -2 -12 3 -12 6 0 11 -7 11 -15 0 -9 7 -18 16 -22 8 -3 13 -12 10
-20 -3 -8 -1 -11 4 -8 6 3 10 -1 10 -10 0 -9 4 -13 10 -10 5 3 10 0 10 -7 0
-9 3 -9 10 2 9 13 10 13 10 0 1 -13 2 -13 13 1 7 8 24 15 39 14 16 -1 28 2 28
7 0 5 5 6 10 3 6 -3 10 2 10 12 0 10 3 14 8 8 6 -10 20 -11 40 -5 4 1 10 2 14
1 5 0 8 3 8 7 0 5 13 8 30 7 16 -1 27 2 25 6 -3 4 2 10 11 13 8 3 13 2 10 -2
-3 -5 1 -9 9 -9 8 0 12 4 9 8 -2 4 0 10 6 14 5 3 10 1 10 -6 0 -9 4 -9 15 1 8
6 19 9 25 5 5 -3 10 2 11 12 0 11 3 13 6 5 4 -10 8 -10 19 -1 11 9 14 9 14 0
0 -7 5 -9 10 -6 6 4 8 11 5 16 -3 5 2 6 11 2 10 -4 15 -2 11 3 -3 6 8 9 29 8
24 -2 32 0 28 8 -5 7 -2 9 9 5 9 -3 19 -2 22 3 4 6 15 6 28 -2 19 -10 20 -9 9
4 -10 13 -9 15 13 13 14 -2 25 1 25 6 0 4 7 6 15 3 8 -4 15 -1 15 6 0 10 3 10
14 1 11 -10 17 -8 24 6 6 10 13 17 16 16 3 -2 8 -2 11 -2 3 1 13 2 23 3 9 1
23 5 30 9 6 5 12 5 12 1 0 -3 6 -2 13 4 15 13 31 4 40 -20 3 -10 13 -18 21
-18 7 0 17 -7 20 -16 4 -10 2 -13 -6 -8 -7 4 -8 3 -4 -4 4 -7 14 -12 22 -12 8
0 12 -4 9 -10 -3 -6 1 -10 10 -10 9 0 14 -4 11 -9 -3 -5 1 -12 10 -15 8 -3 12
-10 9 -16 -3 -5 1 -10 10 -10 9 0 14 -4 10 -9 -3 -5 10 -22 30 -36 19 -15 32
-31 29 -36 -3 -5 -2 -9 3 -8 19 3 34 -2 29 -10 -3 -5 1 -11 9 -15 8 -3 15 -13
15 -21 0 -9 5 -13 10 -10 6 3 10 0 10 -8 0 -8 9 -17 20 -20 11 -3 20 -13 20
-22 0 -9 5 -13 10 -10 6 3 10 2 10 -4 0 -5 9 -12 20 -16 11 -3 19 -11 17 -17
-1 -7 11 -18 27 -26 16 -8 31 -23 34 -34 2 -11 10 -17 18 -14 8 3 13 0 11 -7
-1 -7 4 -11 11 -9 8 1 11 -1 9 -5 -2 -5 7 -19 21 -33 14 -14 21 -18 16 -10 -5
9 4 1 19 -17 16 -18 34 -33 41 -33 14 0 15 -55 1 -67 -4 -5 -5 -2 0 6 6 10 4
12 -4 7 -9 -6 -9 -11 0 -22 9 -11 9 -14 0 -14 -7 0 -10 -4 -7 -9 4 -5 0 -12
-6 -14 -9 -4 -9 -6 1 -6 11 -1 10 -5 -5 -17 -10 -8 -13 -13 -7 -9 7 3 13 1 13
-4 0 -6 -5 -11 -11 -11 -6 0 -9 -7 -6 -15 4 -8 2 -17 -3 -20 -5 -3 -7 -12 -4
-19 3 -8 0 -17 -7 -22 -8 -5 -10 -3 -4 6 5 9 4 11 -4 6 -9 -6 -9 -11 -1 -21 8
-10 8 -15 0 -20 -8 -5 -7 -11 2 -23 10 -12 10 -14 1 -8 -12 6 -18 -5 -14 -26
0 -5 -3 -8 -8 -8 -6 0 -8 -9 -6 -21 3 -15 0 -19 -11 -15 -10 4 -13 2 -7 -7 11
-18 13 -40 4 -52 -5 -5 -12 -25 -16 -43 -4 -21 -11 -30 -18 -25 -7 4 -6 -1 2
-10 10 -13 10 -17 1 -17 -7 0 -10 -7 -7 -15 4 -8 2 -17 -4 -21 -6 -3 -8 -12
-5 -20 3 -7 -1 -20 -9 -28 -11 -11 -12 -16 -2 -19 9 -4 9 -6 0 -6 -7 -1 -10
-8 -6 -18 4 -9 2 -14 -3 -11 -5 4 -10 -7 -11 -24 0 -17 -6 -34 -13 -38 -9 -6
-9 -9 0 -15 8 -5 7 -12 -6 -26 -13 -15 -14 -19 -3 -19 11 0 12 -2 1 -9 -11 -7
-10 -9 3 -15 9 -3 13 -10 10 -16 -3 -5 2 -10 13 -10 23 0 55 -33 45 -45 -5 -5
1 -3 11 5 13 10 17 10 12 2 -4 -7 -2 -12 7 -12 7 0 23 -9 35 -20 12 -11 26
-20 31 -20 6 0 14 -7 19 -16 5 -9 11 -16 13 -15 13 2 49 -13 49 -20 0 -5 5 -9
10 -9 6 0 21 -9 32 -20 17 -15 24 -17 30 -8 6 10 8 9 9 -2 1 -8 1 -19 0 -23
-1 -5 3 -6 8 -3 5 4 16 -1 24 -9 12 -11 17 -12 20 -2 4 9 6 9 6 -1 1 -7 5 -10
11 -7 6 4 7 -1 3 -11 -4 -11 -3 -15 5 -10 6 3 14 1 17 -5 4 -5 13 -8 20 -5 8
3 17 -4 21 -16 5 -16 8 -18 15 -7 7 11 9 11 9 -3 0 -11 6 -16 19 -13 11 2 22
-3 25 -12 4 -9 9 -13 12 -10 4 3 15 -3 27 -13 15 -15 24 -17 34 -8 11 9 12 7
7 -7 -5 -12 -4 -16 3 -12 6 4 18 0 27 -9 9 -8 20 -12 26 -9 5 3 10 1 10 -5 0
-7 7 -10 14 -7 10 4 13 1 9 -9 -4 -10 0 -12 13 -7 12 4 15 3 10 -5 -5 -8 -2
-10 8 -6 9 3 16 1 16 -5 0 -6 7 -8 17 -4 10 4 14 2 10 -4 -10 -16 18 -24 33
-10 10 9 12 8 7 -5 -4 -12 -1 -16 14 -13 10 2 19 0 19 -6 0 -5 5 -9 10 -9 6 0
9 3 8 8 -5 14 30 54 41 47 7 -3 11 -3 10 2 -3 19 2 34 10 28 5 -3 13 4 16 16
4 13 12 18 21 15 8 -3 13 -2 10 3 -9 13 31 54 45 45 8 -4 9 -3 5 4 -8 13 101
129 116 124 4 -1 8 4 8 12 0 7 14 23 30 36 17 13 30 29 30 36 0 7 5 16 12 20
7 5 8 3 3 -7 -8 -12 -6 -12 8 0 9 7 17 20 17 29 0 8 3 13 6 9 8 -8 44 25 44
42 0 8 3 12 6 8 11 -10 36 22 28 35 -5 9 -2 8 10 -1 9 -8 16 -10 15 -5 -4 25
2 36 18 30 10 -4 14 -4 10 0 -4 4 2 14 13 21 11 8 18 18 15 23 -3 5 16 2 42
-6 26 -9 54 -16 61 -16 6 -1 12 -5 12 -10 0 -5 4 -7 9 -3 5 3 16 -2 25 -10 9
-10 17 -11 21 -5 4 6 11 8 16 4 5 -3 7 -9 5 -13 -3 -4 9 -7 25 -6 18 1 33 -4
36 -11 3 -8 9 -11 14 -8 5 3 15 2 22 -3 6 -4 20 -8 30 -9 36 -3 38 -4 31 -16
-5 -9 -2 -9 9 1 9 7 17 9 17 3 0 -5 7 -13 16 -16 10 -4 13 -2 8 7 -6 9 -4 9 8
-1 9 -7 20 -12 24 -11 5 1 11 0 14 -1 14 -5 48 -12 74 -14 17 -1 32 -8 34 -15
3 -9 8 -9 20 1 13 11 14 11 7 -1 -6 -11 -4 -13 8 -8 10 3 17 3 17 -2 0 -4 11
-6 25 -3 21 4 24 1 19 -14 -4 -12 -3 -15 3 -7 10 14 53 13 53 0 0 -5 6 -5 13
2 9 6 17 7 23 1 5 -5 24 -10 41 -12 22 -1 35 -9 42 -25 8 -17 7 -23 -2 -23 -8
0 -7 -3 3 -9 8 -6 18 -7 23 -4 5 3 4 -4 -2 -16 -7 -13 -8 -21 -2 -21 6 0 8 -6
5 -14 -3 -8 -1 -17 5 -21 6 -3 11 -12 11 -18 0 -7 -4 -6 -10 3 -7 10 -10 11
-10 2 0 -7 6 -15 13 -18 16 -6 18 -34 3 -34 -5 0 -2 -6 9 -13 10 -8 15 -19 11
-25 -3 -6 -1 -14 5 -18 8 -4 7 -9 -2 -15 -11 -7 -11 -9 -1 -9 7 0 10 -4 7 -10
-3 -5 -1 -10 5 -10 6 0 8 -4 5 -10 -3 -5 0 -10 7 -10 9 0 9 -3 -2 -10 -8 -5
-10 -10 -4 -10 11 0 13 -7 16 -55 1 -14 6 -25 11 -25 4 0 5 -4 2 -10 -3 -5 0
-10 7 -10 9 0 9 -3 -2 -10 -11 -7 -11 -10 -2 -10 7 0 10 -4 7 -10 -3 -5 0 -10
7 -10 9 0 9 -3 -2 -10 -8 -5 -10 -10 -4 -10 7 0 15 -7 18 -16 4 -10 2 -13 -7
-8 -8 6 -8 3 1 -9 8 -9 11 -21 7 -27 -3 -5 -2 -10 4 -10 5 0 8 -11 6 -25 -1
-14 1 -25 5 -25 4 0 11 -7 14 -16 4 -10 2 -13 -7 -8 -9 6 -9 4 1 -8 7 -9 14
-30 15 -47 1 -17 6 -31 11 -31 4 0 6 -7 2 -15 -3 -8 -1 -15 4 -15 5 0 7 -6 4
-14 -3 -7 7 -21 22 -31 14 -9 24 -12 20 -6 -7 10 62 7 72 -4 3 -3 11 0 18 6 7
6 15 6 18 1 3 -5 25 -7 48 -5 31 3 39 1 28 -7 -18 -11 -4 -12 25 -1 11 5 28 5
37 0 11 -6 22 -4 34 9 16 15 17 15 12 1 -5 -13 -1 -16 18 -15 13 0 24 4 24 9
0 4 5 7 11 7 5 0 7 -4 4 -10 -3 -5 1 -10 10 -10 10 0 13 5 9 12 -6 10 -4 10 7
2 17 -12 148 -12 168 0 9 6 12 5 8 -1 -8 -12 83 -10 103 2 9 5 11 4 6 -3 -4
-7 -2 -12 3 -12 6 0 11 5 11 10 0 6 5 10 11 10 5 0 7 -5 4 -10 -3 -6 -1 -10 4
-10 6 0 11 5 11 10 0 7 7 7 21 -1 16 -8 20 -8 14 0 -4 8 2 10 19 7 14 -3 28 0
32 5 3 6 12 5 22 -3 10 -9 16 -9 19 -2 2 6 24 9 54 8 37 -3 48 0 42 9 -5 9 -4
9 8 0 12 -10 17 -8 28 9 10 16 10 19 -1 12 -7 -4 -5 2 5 13 12 14 15 23 8 28
-7 4 -6 13 3 28 8 12 12 30 11 39 -2 10 1 18 6 18 6 0 7 5 4 10 -3 6 0 10 7
10 9 0 9 3 -2 10 -11 7 -11 10 -2 10 7 0 10 4 7 10 -3 5 -1 10 4 10 6 0 11 5
11 11 0 6 -6 7 -12 2 -8 -4 -7 3 3 17 9 14 15 33 13 42 -1 10 2 18 6 18 5 0 7
9 5 20 -2 11 1 20 6 20 6 0 8 4 5 8 -3 5 2 21 10 37 12 23 12 30 2 37 -11 6
-10 8 0 8 7 0 10 5 7 10 -3 6 -1 10 5 10 6 0 8 5 5 10 -4 6 -1 18 7 27 11 14
11 16 -1 8 -11 -6 -10 -2 2 16 20 28 22 43 5 33 -7 -4 -6 1 3 12 8 10 15 26
14 34 0 8 5 20 11 27 6 7 10 26 9 43 -1 16 0 30 4 30 6 0 11 21 14 63 1 9 5
17 10 17 4 0 6 4 2 9 -3 5 -1 12 5 16 5 3 10 1 10 -6 0 -7 7 -4 16 7 8 10 13
14 10 7 -4 -6 -2 -14 4 -18 5 -3 10 0 10 8 0 9 10 13 30 12 17 -1 30 2 30 6 0
4 14 5 30 3 18 -3 30 -1 30 6 0 6 -5 8 -12 4 -7 -4 -8 -3 -4 4 9 15 38 3 29
-12 -3 -6 2 -4 13 5 10 9 29 15 42 14 12 -1 22 2 22 6 0 5 6 6 14 3 8 -3 17 0
21 5 3 6 11 9 16 6 5 -4 9 0 9 7 0 9 3 9 10 -2 6 -9 10 -11 10 -3 0 7 7 10 15
7 8 -4 15 -2 15 4 0 6 11 9 25 7 14 -1 25 1 25 5 0 7 10 9 54 13 13 1 22 6 18
11 -3 5 2 7 11 3 10 -3 17 -2 17 3 0 5 9 7 20 5 13 -3 18 0 14 7 -5 7 0 9 14
6 13 -4 23 0 27 10 4 11 9 12 17 4 12 -12 41 -5 32 9 -3 5 2 6 10 3 9 -3 16
-2 16 4 0 6 12 9 26 7 15 -1 28 3 31 12 4 11 8 11 20 2 8 -7 13 -8 11 -3 -2 5
-1 9 2 9 3 0 18 8 32 17 26 17 27 17 23 -1 -3 -15 1 -19 16 -16 11 2 17 0 14
-6 -4 -5 1 -12 9 -15 9 -3 16 -13 16 -21 0 -8 3 -12 8 -10 9 6 33 -19 25 -27
-4 -3 1 -6 11 -6 9 0 15 -4 11 -9 -3 -5 4 -13 16 -16 11 -4 18 -9 15 -12 -7
-7 17 -32 27 -26 4 2 7 -1 7 -7 0 -6 5 -8 12 -4 7 4 8 3 4 -5 -8 -12 16 -41
33 -41 6 0 11 -10 11 -22 0 -17 3 -19 9 -9 7 11 10 9 16 -8 3 -11 13 -21 21
-21 8 0 13 -4 12 -8 -2 -5 15 -25 36 -45 21 -20 35 -37 30 -37 -5 -1 4 -8 19
-16 17 -9 25 -20 21 -27 -4 -7 -4 -9 1 -5 5 5 15 -1 22 -12 8 -11 19 -17 25
-14 7 4 8 2 4 -4 -4 -7 -2 -12 4 -12 6 0 8 -5 5 -10 -6 -9 7 -14 27 -11 4 0
10 -10 14 -23 4 -17 11 -23 22 -19 8 4 13 2 9 -3 -3 -6 -2 -15 2 -22 9 -15 71
-24 71 -11 0 6 5 7 12 3 6 -4 17 1 24 10 6 9 21 18 32 19 11 0 18 6 15 13 -2
7 5 10 21 9 15 -2 24 0 21 5 -3 4 2 11 11 14 10 4 13 2 8 -7 -4 -6 4 -2 17 9
24 22 67 40 82 36 5 -1 6 2 2 8 -3 5 1 10 10 10 10 0 13 5 9 12 -4 7 -3 8 5 4
6 -4 18 -2 26 4 8 6 19 9 24 5 7 -3 8 0 5 10 -4 11 -2 14 9 9 9 -3 24 3 35 14
11 11 23 18 26 15 3 -3 15 5 27 18 11 13 17 18 13 10 -8 -15 53 25 74 49 7 8
11 10 8 4 -3 -6 1 -11 8 -11 9 0 12 7 8 15 -4 11 -1 14 11 9 12 -4 17 -1 17
11 0 15 2 15 10 2 8 -13 10 -13 10 2 0 12 5 15 17 11 12 -5 15 -2 10 10 -3 9
-3 16 1 15 15 -3 72 29 65 37 -5 4 0 5 10 2 10 -4 16 -3 13 2 -3 4 7 14 22 22
15 8 30 18 34 24 4 5 12 10 17 10 6 0 17 9 26 20 9 11 14 13 10 5 -4 -8 1 -6
10 5 15 19 15 20 -1 24 -14 2 -14 5 -3 12 10 6 10 9 2 9 -7 0 -10 7 -7 15 4 8
2 15 -4 15 -5 0 -8 10 -8 22 1 13 -2 32 -8 43 -11 22 -17 49 -18 82 0 13 -4
20 -9 17 -10 -6 -10 -4 -13 49 -1 21 -8 42 -16 47 -7 4 -11 17 -7 29 3 12 1
21 -4 21 -5 0 -8 3 -8 8 4 21 -2 32 -13 26 -9 -5 -9 -2 1 9 7 9 9 17 3 17 -5
0 -13 7 -16 16 -3 8 -2 12 4 9 6 -3 10 -2 10 4 0 5 -5 11 -10 13 -6 2 -13 21
-16 43 -2 21 -10 46 -17 54 -10 12 -9 13 2 7 10 -7 10 -3 -2 15 -8 13 -13 32
-12 42 2 9 -1 17 -6 17 -4 0 -5 7 -2 17 5 12 3 14 -7 8 -9 -5 -11 -4 -6 4 4 6
2 19 -6 28 -11 14 -11 16 2 8 13 -8 13 -7 1 8 -18 22 -23 67 -8 64 7 -1 10 5
9 13 -2 8 0 12 4 8 4 -5 14 1 22 13 8 11 19 19 26 16 6 -2 19 5 29 15 9 10 15
18 12 18 -3 0 4 9 15 20 12 12 26 18 33 14 7 -4 9 -4 5 0 -9 10 23 46 40 46
12 0 12 3 1 17 -9 11 -10 14 -2 9 8 -4 23 3 39 19 14 14 29 23 35 20 5 -4 6 2
2 11 -5 13 -3 15 7 9 10 -6 12 -4 7 7 -4 11 2 18 19 22 13 4 24 13 24 22 0 9
5 12 12 8 8 -5 9 -2 5 9 -3 9 -3 16 2 14 4 -1 23 14 42 32 19 19 28 32 22 27
-7 -4 -13 -5 -13 -1 0 3 12 10 26 15 14 6 22 15 19 20 -4 6 -3 9 2 8 4 -2 10
2 12 7 8 18 26 33 34 28 4 -2 7 5 7 17 0 12 3 19 8 17 4 -3 13 1 20 9 7 8 10
14 7 14 -4 0 0 7 9 15 8 8 21 15 28 15 11 0 11 2 0 9 -11 7 -10 10 3 15 9 3
21 4 26 0 5 -3 9 1 9 8 0 8 5 6 11 -5 8 -14 14 -15 24 -7 10 8 15 8 21 -1 5
-8 3 -9 -6 -4 -8 5 -11 4 -6 -3 3 -6 15 -9 26 -7 11 2 20 0 20 -5 0 -5 6 -7
14 -4 8 3 17 0 21 -5 3 -6 11 -9 16 -5 5 3 17 0 26 -8 14 -11 16 -11 8 2 -6
12 -5 13 6 2 7 -6 21 -12 31 -12 10 0 18 -4 18 -9 0 -5 9 -7 20 -4 11 3 26 0
33 -6 8 -6 17 -8 20 -4 4 3 7 1 7 -6 0 -9 5 -9 20 -1 22 12 27 1 8 -19 -11
-11 -10 -12 2 -5 22 12 39 14 46 3 3 -6 12 -5 22 3 13 11 14 11 7 -1 -6 -11
-4 -13 10 -7 15 5 16 4 5 -9 -11 -13 -10 -14 11 -6 18 6 31 4 53 -12 16 -12
26 -16 22 -9 -4 7 -2 12 3 12 6 0 11 -5 11 -11 0 -5 5 -7 12 -3 6 4 17 -1 25
-11 7 -11 13 -14 13 -8 0 14 17 11 49 -6 16 -9 21 -9 16 -1 -5 8 -2 9 11 1 28
-15 58 -24 68 -22 5 1 13 -4 17 -11 7 -10 9 -10 9 1 0 10 3 11 14 2 11 -9 15
-8 20 4 4 11 2 14 -7 10 -6 -4 -4 0 6 8 9 8 17 19 17 26 0 6 7 14 15 17 8 4
13 10 10 14 -3 4 2 11 11 14 9 4 14 9 11 12 -3 4 2 14 11 23 11 10 12 12 2 6
-10 -6 -9 -2 4 12 10 13 23 20 29 16 6 -3 7 -1 3 5 -9 15 18 55 29 44 5 -4 5
-2 2 4 -3 6 5 27 19 48 14 20 22 41 18 48 -4 6 -3 8 3 5 6 -4 17 1 24 10 8 9
9 14 3 10 -6 -3 -11 0 -11 7 0 9 7 12 15 8 11 -4 14 -1 9 11 -4 11 -1 17 9 17
8 0 13 4 10 9 -3 4 4 19 15 32 11 13 18 31 16 40 -3 11 0 16 8 13 7 -3 16 -1
20 5 3 6 0 11 -7 11 -8 1 -7 6 5 14 10 8 18 17 18 20 -3 21 0 26 11 20 8 -5 9
-2 5 9 -3 10 -2 17 3 17 8 0 20 25 20 43 0 11 24 36 31 31 3 -2 5 7 4 19 -1
12 6 30 16 41 10 10 16 23 13 28 -3 4 0 8 7 8 7 0 9 3 6 7 -4 3 0 17 8 30 9
13 12 23 8 23 -5 0 -3 4 2 8 14 10 39 55 26 47 -7 -4 -11 3 -12 17 0 13 -3 18
-6 11 -3 -10 -7 -10 -18 0 -7 7 -11 15 -8 20 2 4 -3 7 -11 7 -8 0 -18 9 -21
21 -4 12 -12 18 -21 15 -8 -3 -13 0 -11 7 1 7 -3 11 -10 10 -7 -2 -10 3 -7 11
3 8 -4 16 -17 19 -15 4 -20 11 -15 23 4 11 2 15 -7 11 -15 -6 -49 27 -40 37 4
3 1 6 -6 6 -15 0 -61 45 -61 60 0 6 -4 9 -8 6 -4 -2 -14 -1 -22 5 -13 7 -13 9
0 9 8 1 5 5 -8 11 -13 5 -20 13 -17 19 3 5 0 10 -7 10 -8 0 -20 9 -28 19 -7
11 -17 18 -22 15 -4 -3 -8 0 -8 6 0 17 -53 65 -68 62 -8 -2 -11 1 -7 8 8 13
-29 53 -39 43 -6 -6 -10 13 -7 30 1 5 -2 6 -7 3 -5 -3 -18 2 -28 10 -10 9 -12
12 -4 9 8 -4 2 4 -14 19 -21 19 -25 27 -14 31 7 3 15 13 16 23 4 42 10 56 20
60 7 2 9 8 6 13 -3 6 0 16 6 24 7 8 10 24 7 35 -3 11 -1 18 4 14 5 -3 9 4 9
15 0 12 6 21 13 21 9 0 8 3 -2 9 -8 5 -9 10 -3 12 6 2 13 19 15 38 3 19 12 38
19 42 10 7 10 9 -1 9 -11 0 -9 4 5 15 13 10 14 14 5 15 -10 0 -11 3 -2 14 6 7
9 20 5 29 -3 8 0 18 7 23 8 5 10 3 4 -6 -5 -8 -4 -11 3 -6 7 4 8 17 2 37 -7
23 -6 30 3 26 7 -3 13 5 14 19 1 13 3 35 4 49 1 13 6 22 11 19 6 -4 8 2 4 14
-4 11 -2 23 4 27 7 4 7 13 -1 27 -9 16 -8 19 2 13 9 -6 11 -3 6 8 -3 9 -1 19
5 23 7 5 8 2 4 -7 -4 -8 -1 -6 7 4 15 18 43 24 32 7 -9 -15 2 -12 19 6 9 9 16
11 16 4 0 -6 5 -8 10 -5 6 4 17 2 25 -5 9 -8 15 -8 20 0 5 8 11 7 23 -2 9 -8
13 -8 9 -2 -9 16 18 25 32 11 8 -8 11 -8 11 2 0 7 5 9 10 6 8 -5 7 -12 -2 -23
-8 -11 -5 -10 10 3 20 16 25 17 32 5 6 -9 10 -10 10 -3 0 12 30 10 53 -3 7 -5
6 0 -3 11 -9 11 -10 16 -2 11 7 -4 24 -9 38 -12 19 -3 24 -1 18 8 -6 10 -3 9
9 -1 14 -11 20 -11 34 0 15 12 16 12 10 -5 -6 -15 -5 -17 6 -8 10 9 17 8 27
-1 8 -7 10 -8 7 -1 -4 7 3 14 19 17 19 3 24 1 19 -11 -5 -13 -3 -13 11 -2 13
12 17 11 25 -1 5 -8 9 -9 9 -3 0 13 109 12 130 -1 9 -6 11 -4 5 5 -6 10 -4 12
8 7 9 -3 18 -1 21 6 3 9 5 9 5 0 1 -7 6 -13 12 -13 5 0 7 6 3 13 -6 9 -4 9 8
-1 9 -7 29 -11 45 -9 15 2 38 0 51 -4 15 -6 21 -5 17 1 -7 12 23 9 44 -4 9 -6
12 -5 7 2 -3 6 -2 13 4 17 5 3 10 1 10 -6 0 -7 3 -9 7 -6 3 4 13 1 21 -6 13
-10 14 -9 7 2 -6 11 -4 13 8 8 10 -4 17 -1 17 6 0 8 2 9 8 1 4 -6 21 -10 37
-9 17 1 40 -2 53 -7 15 -5 21 -4 17 2 -7 12 23 9 44 -4 9 -6 12 -5 7 2 -3 6
-2 13 4 17 5 3 10 1 10 -6 0 -7 3 -9 7 -6 3 4 13 1 21 -6 13 -10 14 -9 7 2 -6
11 -4 13 8 8 10 -4 17 -1 17 6 0 8 3 8 8 2 10 -15 113 -15 105 -1 -4 6 1 5 10
-3 14 -11 20 -11 34 0 15 12 16 12 10 -5 -6 -15 -5 -17 6 -8 10 9 17 8 27 -1
8 -7 10 -8 7 -1 -4 7 3 14 19 17 19 3 24 1 19 -11 -5 -13 -3 -13 11 -2 13 12
17 11 25 -1 5 -8 9 -9 9 -3 0 13 109 12 130 -1 9 -6 11 -4 5 5 -6 10 -4 12 8
7 9 -3 18 -1 21 6 3 9 5 9 5 0 1 -7 6 -13 12 -13 5 0 7 6 3 13 -6 9 -4 9 8 -1
9 -7 29 -11 45 -9 15 2 38 0 51 -4 15 -6 21 -5 17 1 -7 12 23 9 44 -4 9 -6 12
-5 7 2 -3 6 -2 13 4 17 5 3 10 1 10 -6 0 -7 3 -9 7 -6 3 4 13 1 21 -6 13 -10
14 -9 7 2 -6 11 -4 13 8 8 10 -4 17 -1 17 6 0 8 2 9 8 1 4 -6 21 -10 37 -9 17
1 40 -2 53 -7 15 -5 21 -4 17 2 -7 12 23 9 44 -4 9 -6 12 -5 7 2 -3 6 -2 13 4
17 5 3 10 1 10 -6 0 -7 3 -9 7 -6 3 4 13 1 21 -6 13 -10 14 -9 7 2 -6 11 -4
13 8 8 10 -4 17 -1 17 6 0 9 2 9 8 0 4 -6 23 -10 42 -8 19 2 40 -1 47 -6 7 -7
14 -6 18 1 5 8 11 7 23 -2 9 -8 13 -8 9 -2 -9 16 18 25 32 11 8 -8 11 -8 11 2
0 7 5 9 10 6 8 -5 7 -12 -2 -23 -9 -12 -6 -11 10 2 12 11 22 15 22 10 0 -5 5
-2 10 6 6 9 10 10 10 3 0 -7 13 -10 33 -9 17 2 42 -1 55 -5 16 -6 21 -6 16 2
-4 7 -1 10 7 7 8 -3 22 -1 31 3 11 6 19 5 24 -3 5 -7 3 -8 -6 -3 -9 6 -11 4
-6 -4 6 -9 13 -8 29 6 11 10 17 12 12 4 -6 -11 -3 -13 12 -9 11 3 28 1 38 -5
14 -7 16 -7 10 3 -6 10 -4 12 7 7 9 -3 21 0 28 6 10 9 11 9 6 0 -4 -7 -2 -13
3 -13 6 0 11 6 11 13 0 8 2 9 8 1 4 -6 21 -10 37 -9 17 1 40 -2 53 -7 13 -4
21 -4 18 1 -8 12 46 11 61 -1 7 -6 14 -5 18 2 5 8 11 7 23 -2 9 -8 13 -8 9 -2
-9 16 18 25 32 11 8 -8 11 -8 11 2 0 7 5 9 10 6 8 -5 7 -12 -2 -23 -9 -12 -6
-11 10 2 12 11 22 15 22 10 0 -5 5 -2 10 6 6 9 10 10 10 3 0 -7 13 -10 33 -9
17 2 42 -1 55 -5 16 -6 21 -6 16 2 -4 7 -1 10 7 7 8 -3 22 -1 31 3 11 6 19 5
24 -3 5 -7 3 -8 -6 -3 -9 6 -11 4 -6 -4 6 -9 13 -8 29 6 11 10 17 12 12 4 -6
-11 -3 -13 12 -9 11 3 28 1 38 -5 14 -7 16 -7 10 3 -6 10 -4 12 7 7 9 -3 21 0
28 6 10 9 11 9 6 0 -4 -7 -2 -13 3 -13 6 0 11 6 11 13 0 8 2 9 8 1 4 -6 21
-10 37 -9 17 1 40 -2 53 -7 14 -5 21 -4 17 2 -3 5 12 8 40 5 33 -2 43 0 38 8
-4 7 1 6 10 -2 14 -11 20 -11 34 0 15 12 16 12 10 -5 -6 -15 -5 -17 6 -8 10 9
17 8 27 -1 8 -7 10 -8 7 -1 -4 7 3 14 19 17 19 3 24 1 19 -11 -5 -13 -3 -13
11 -2 13 12 17 11 25 -1 5 -8 9 -9 9 -3 0 7 28 10 78 9 45 -1 80 3 84 9 5 7 8
7 8 -2 0 -7 5 -10 10 -7 6 3 10 1 10 -5 0 -6 4 -8 10 -5 6 3 7 -1 4 -10 -4 -9
-9 -14 -11 -11 -7 6 -43 -26 -38 -34 2 -4 -13 -17 -34 -31 -21 -13 -36 -29
-34 -36 2 -6 -5 -14 -17 -18 -14 -4 -19 -12 -15 -22 4 -13 3 -14 -10 -3 -12
10 -15 10 -15 -4 0 -9 -5 -16 -11 -16 -5 0 -7 -5 -3 -12 5 -7 2 -9 -9 -5 -9 3
-18 0 -21 -9 -4 -10 -2 -12 6 -8 7 5 8 3 4 -5 -5 -7 -14 -10 -22 -7 -8 3 -13
2 -13 -2 3 -20 -2 -32 -13 -30 -7 2 -12 -3 -10 -11 2 -8 -3 -11 -12 -8 -8 3
-17 -1 -20 -9 -4 -10 -2 -12 6 -8 7 5 8 3 4 -5 -5 -7 -14 -10 -22 -7 -8 3 -13
2 -13 -2 3 -19 -2 -33 -10 -28 -11 7 -62 -50 -53 -60 4 -4 -1 -4 -12 0 -14 5
-17 2 -12 -9 3 -8 2 -14 -2 -14 -21 3 -31 -3 -26 -15 3 -9 -3 -17 -16 -21 -14
-4 -19 -12 -15 -22 4 -13 3 -14 -10 -3 -12 10 -15 10 -15 -4 0 -9 -5 -16 -11
-16 -5 0 -7 -5 -3 -12 5 -7 2 -9 -9 -5 -9 3 -18 0 -21 -9 -4 -10 -2 -12 6 -8
7 5 8 3 4 -5 -5 -7 -15 -10 -23 -7 -8 3 -12 2 -9 -3 3 -4 -2 -17 -10 -27 -9
-10 -13 -13 -9 -7 4 8 1 11 -9 7 -8 -3 -12 -12 -10 -19 3 -8 -4 -16 -16 -20
-14 -4 -19 -12 -15 -22 4 -13 3 -14 -10 -3 -12 10 -15 10 -15 -4 0 -9 -5 -16
-11 -16 -5 0 -7 -5 -3 -12 5 -7 2 -9 -9 -5 -9 3 -18 0 -21 -9 -4 -10 -2 -12 6
-8 7 5 8 3 4 -5 -5 -7 -14 -10 -22 -7 -8 3 -13 2 -13 -2 3 -20 -2 -32 -13 -30
-7 2 -12 -2 -11 -9 2 -7 -4 -10 -12 -7 -11 5 -14 2 -9 -12 4 -11 4 -16 0 -12
-10 9 -67 -42 -60 -53 5 -8 -9 -13 -28 -10 -4 0 -5 -5 -2 -13 3 -8 0 -17 -7
-22 -8 -4 -10 -3 -5 4 4 8 2 10 -8 6 -8 -3 -12 -12 -10 -19 3 -7 0 -16 -7 -21
-8 -4 -10 -3 -5 4 4 8 2 10 -8 6 -8 -3 -12 -12 -10 -19 3 -8 -4 -16 -16 -20
-14 -4 -19 -12 -15 -22 4 -13 3 -14 -10 -3 -12 10 -15 10 -15 -4 0 -9 -5 -16
-11 -16 -5 0 -7 -5 -3 -12 5 -7 2 -9 -9 -5 -9 3 -18 0 -21 -9 -4 -10 -2 -12 6
-8 7 5 8 3 4 -5 -5 -7 -14 -10 -22 -7 -8 3 -13 2 -13 -2 3 -20 -2 -32 -13 -30
-7 2 -12 -2 -11 -9 2 -7 -4 -10 -12 -7 -11 5 -14 2 -9 -12 4 -11 4 -16 0 -12
-10 9 -67 -42 -60 -53 5 -8 -9 -13 -28 -10 -4 0 -5 -5 -2 -13 3 -8 0 -17 -7
-22 -8 -4 -10 -3 -5 4 4 8 2 10 -8 6 -8 -3 -12 -12 -9 -20 3 -9 0 -14 -8 -12
-8 2 -13 -3 -11 -11 2 -8 -3 -11 -12 -8 -8 3 -17 -1 -20 -9 -4 -10 -2 -12 6
-8 7 5 8 3 4 -5 -5 -7 -14 -10 -22 -7 -8 3 -13 2 -13 -2 3 -19 -2 -33 -10 -28
-11 7 -62 -50 -53 -60 4 -4 -1 -4 -12 0 -14 5 -17 2 -12 -9 3 -8 2 -14 -2 -14
-21 3 -31 -3 -26 -15 3 -9 -3 -17 -16 -21 -14 -4 -19 -12 -15 -22 4 -13 3 -14
-10 -3 -12 10 -15 10 -15 -4 0 -9 -5 -16 -11 -16 -5 0 -7 -5 -3 -12 5 -7 2 -9
-9 -5 -9 3 -18 0 -21 -9 -4 -10 -2 -12 6 -8 7 5 8 3 4 -5 -5 -7 -15 -10 -23
-7 -8 3 -12 2 -9 -3 3 -4 -2 -17 -10 -27 -9 -10 -13 -13 -9 -7 4 8 1 11 -9 7
-8 -3 -12 -12 -10 -19 3 -8 -4 -16 -16 -20 -14 -4 -19 -12 -15 -22 4 -13 3
-14 -10 -3 -12 10 -15 10 -15 -4 0 -9 -5 -16 -11 -16 -5 0 -7 -5 -3 -12 5 -7
2 -9 -9 -5 -9 3 -18 0 -21 -9 -4 -10 -2 -12 6 -8 7 5 8 3 4 -5 -5 -7 -14 -10
-22 -7 -8 3 -13 2 -13 -2 3 -20 -2 -32 -13 -30 -7 2 -12 -2 -11 -9 2 -7 -4
-10 -12 -7 -11 5 -14 2 -9 -12 4 -11 4 -16 0 -12 -10 9 -67 -42 -60 -53 5 -8
-9 -13 -28 -10 -4 0 -5 -5 -2 -13 3 -8 0 -17 -7 -22 -8 -4 -10 -3 -5 4 4 8 2
10 -8 6 -8 -3 -12 -12 -9 -20 3 -9 0 -14 -8 -12 -8 2 -13 -3 -11 -11 2 -8 -3
-11 -12 -8 -8 3 -17 -1 -20 -9 -4 -10 -2 -12 6 -8 7 5 8 3 4 -5 -5 -7 -14 -10
-22 -7 -8 3 -13 2 -13 -2 3 -19 -2 -33 -10 -28 -11 7 -62 -50 -53 -60 4 -4 -1
-4 -12 0 -14 5 -17 2 -12 -9 3 -8 2 -14 -2 -14 -21 3 -31 -3 -26 -15 3 -9 -3
-17 -16 -21 -14 -4 -19 -12 -15 -22 4 -13 3 -14 -10 -3 -12 10 -15 10 -15 -4
0 -9 -5 -16 -11 -16 -5 0 -7 -5 -3 -12 5 -7 2 -9 -9 -5 -9 3 -18 0 -21 -9 -4
-10 -2 -12 6 -8 7 5 8 3 4 -5 -5 -7 -14 -10 -22 -7 -8 3 -13 2 -13 -2 3 -20
-2 -32 -13 -30 -7 2 -12 -2 -11 -9 2 -7 -4 -10 -12 -7 -11 5 -14 2 -9 -12 4
-11 4 -16 0 -12 -10 9 -67 -42 -60 -53 5 -8 -9 -13 -28 -10 -4 0 -5 -5 -2 -13
3 -8 0 -17 -7 -22 -8 -4 -10 -3 -5 4 4 8 2 10 -8 6 -9 -3 -12 -12 -9 -21 4 -9
2 -14 -3 -11 -5 3 -16 -2 -26 -11 -14 -14 -15 -19 -2 -35 14 -20 14 -20 14 0
0 10 4 15 8 9 9 -13 52 -15 52 -2 0 5 8 3 17 -4 14 -12 15 -12 9 -1 -7 11 -4
12 13 3 16 -9 26 -9 42 0 16 8 20 8 14 -1 -9 -14 26 -10 38 5 4 6 10 5 16 -3
11 -17 21 -17 32 0 5 7 9 8 9 2 0 -6 14 -10 30 -10 17 0 30 3 30 8 0 5 9 4 20
-2 15 -8 20 -8 20 2 0 8 3 9 8 3 4 -5 23 -10 42 -10 19 0 38 5 42 10 5 6 8 6
8 -1 0 -14 30 -14 30 0 0 6 4 5 9 -3 8 -12 12 -12 25 -2 9 8 16 9 16 4 0 -13
53 -11 63 2 4 6 10 5 16 -3 11 -17 21 -17 32 0 5 7 9 8 9 2 0 -14 52 -13 63 1
4 6 10 5 16 -4 8 -12 12 -12 25 -2 9 8 16 9 16 4 0 -5 14 -9 30 -8 17 0 30 4
30 10 0 7 3 7 8 0 4 -5 23 -10 42 -10 19 0 38 5 42 10 5 6 8 6 8 -1 0 -14 52
-13 63 1 4 6 10 5 16 -3 11 -17 21 -17 32 0 5 7 9 8 9 2 0 -6 14 -10 30 -10
17 0 30 4 30 10 0 6 4 5 9 -2 11 -17 21 -17 32 0 8 11 10 11 18 0 4 -8 12 -14
16 -14 4 0 12 6 16 14 5 7 9 8 9 2 0 -14 52 -13 63 1 4 6 10 5 16 -4 8 -12 12
-12 25 -2 9 8 16 9 16 4 0 -13 53 -11 63 2 4 6 10 5 16 -3 11 -17 21 -17 32 0
5 7 9 8 9 2 0 -14 52 -13 63 1 4 6 10 5 16 -4 8 -12 12 -12 25 -2 9 8 16 9 16
3 0 -11 25 -11 36 0 10 11 34 -3 27 -16 -3 -6 3 -2 14 9 11 11 18 24 15 29 -3
5 2 6 12 3 10 -4 15 -3 11 3 -3 6 1 13 9 16 9 3 13 10 10 15 -3 5 0 9 5 9 15
0 51 37 44 44 -6 6 12 10 30 7 4 0 6 2 6 6 -4 22 2 33 13 27 8 -5 9 -2 4 12
-4 10 -4 15 0 12 10 -10 46 11 39 23 -6 8 8 13 28 10 5 -1 6 2 3 7 -3 5 8 19
25 31 16 12 27 26 24 32 -6 8 8 13 28 10 4 0 6 2 5 6 -2 5 14 24 34 45 20 20
34 39 31 42 -4 3 -1 6 5 6 16 0 52 37 45 44 -6 6 12 10 30 7 4 0 6 2 6 6 -4
22 2 33 13 27 8 -5 9 -2 4 12 -4 10 -4 15 0 12 10 -10 46 11 39 23 -6 8 8 13
28 10 4 0 6 2 5 6 -3 10 55 68 65 65 4 -1 6 1 6 5 -4 22 2 33 13 27 8 -5 9 -2
4 12 -4 10 -4 15 0 12 10 -10 46 11 39 23 -6 8 8 13 28 10 5 -1 6 2 3 7 -3 5
8 19 25 31 19 14 28 28 25 37 -3 8 -2 12 3 9 13 -7 63 40 53 50 -4 5 2 5 13 1
11 -4 16 -4 13 0 -4 3 0 13 8 21 8 8 12 19 9 24 -4 5 2 6 11 2 12 -4 15 -3 10
5 -7 11 6 17 27 13 5 -1 6 3 2 9 -3 5 -1 10 5 10 6 0 8 4 5 10 -6 9 8 14 28
11 4 0 6 2 5 6 -2 5 14 24 34 44 20 21 34 40 31 43 -4 3 -1 6 5 6 16 0 52 37
45 44 -6 6 12 10 30 7 4 0 6 2 6 6 -4 22 2 33 13 27 8 -5 9 -2 4 12 -4 10 -4
15 0 12 10 -10 46 11 39 23 -6 8 8 13 28 10 4 0 6 2 5 6 -3 10 55 68 65 65 4
-1 6 1 6 5 -4 22 2 33 13 27 8 -5 9 -2 4 12 -4 10 -4 15 0 12 10 -10 46 11 39
23 -6 8 8 13 28 10 5 -1 6 2 3 7 -3 5 8 19 25 31 19 14 28 28 25 37 -3 8 -2
12 3 9 13 -7 63 40 53 50 -4 5 2 5 13 1 11 -4 17 -4 13 -1 -7 7 44 61 55 57 4
-1 6 1 6 5 -3 20 2 34 10 28 12 -7 33 29 23 39 -3 4 2 4 12 0 14 -5 17 -4 12
4 -6 11 5 17 27 13 4 0 6 2 6 6 -3 18 1 36 7 31 7 -8 44 28 44 44 0 6 3 9 6 5
3 -3 22 11 42 31 21 20 40 36 45 34 4 -1 6 1 6 5 -3 20 2 34 10 28 12 -7 33
29 23 39 -3 4 2 4 12 0 14 -5 17 -4 12 4 -6 11 5 17 27 13 4 0 6 5 5 11 -2 7
2 12 9 11 8 -2 10 4 6 15 -3 9 -3 14 2 10 10 -10 57 40 50 53 -3 5 1 6 9 3 9
-3 23 6 37 25 12 17 26 28 31 25 5 -3 8 -2 7 3 -3 20 2 34 10 28 12 -7 33 29
23 39 -3 4 2 4 12 0 14 -5 17 -4 12 4 -6 11 5 17 27 13 4 0 6 2 5 6 -3 10 55
68 65 65 4 -1 6 1 6 5 -3 20 2 34 10 28 12 -7 33 29 23 39 -3 4 2 4 12 0 14
-5 17 -4 12 4 -6 11 5 17 27 13 4 0 6 2 6 6 -3 18 1 36 7 31 7 -8 44 28 44 44
0 6 3 9 6 5 3 -3 22 11 42 31 21 20 40 36 45 34 4 -1 6 1 6 5 -3 20 2 34 10
28 12 -7 33 29 23 39 -3 4 2 4 12 0 14 -5 17 -4 12 4 -6 11 5 17 27 13 4 0 6
5 5 11 -2 7 2 12 9 11 8 -2 10 4 6 15 -3 9 -3 14 2 10 10 -10 57 40 50 53 -3
5 1 6 9 3 9 -3 23 6 37 25 12 17 26 28 31 25 5 -3 8 -2 7 3 -3 20 2 34 10 28
12 -7 33 29 23 39 -3 4 2 4 12 0 14 -5 17 -4 12 4 -7 11 6 17 27 13 5 -1 6 3
3 8 -4 5 3 16 14 24 11 7 17 17 13 20 -3 4 -1 7 5 7 6 0 24 12 39 27 15 14 21
23 13 19 -8 -4 -6 -1 4 8 10 8 23 13 28 10 5 -3 7 -2 6 3 -2 4 14 24 34 44 20
21 34 40 31 43 -4 3 -1 6 5 6 16 0 52 37 45 44 -6 6 12 10 30 7 4 0 6 2 6 6
-4 22 2 33 13 27 8 -5 9 -2 4 12 -4 10 -4 15 0 12 10 -10 46 11 39 23 -6 8 8
13 28 10 4 0 6 2 5 7 -2 4 16 25 39 47 35 35 39 44 30 60 -13 25 -28 35 -42
28 -5 -4 -7 -3 -3 1 4 5 -4 19 -18 33 -13 13 -21 29 -18 35 4 6 2 8 -4 4 -15
-9 -65 46 -54 60 4 5 -2 2 -13 -6 -11 -8 -17 -11 -13 -6 4 4 -4 20 -17 34 -13
14 -22 29 -19 33 2 5 -5 6 -16 4 -11 -2 -18 0 -15 6 4 5 -1 12 -9 15 -8 3 -18
14 -21 25 -4 10 -13 19 -21 19 -13 0 -18 12 -15 33 0 4 -2 6 -6 6 -20 -3 -34
2 -28 11 3 6 -1 10 -9 10 -9 0 -16 7 -16 16 0 8 -3 13 -7 11 -10 -6 -34 19
-26 27 4 3 -1 6 -10 6 -10 0 -17 7 -17 16 0 8 -4 13 -9 9 -5 -3 -12 4 -16 15
-3 11 -11 20 -16 20 -6 0 -7 6 -3 13 5 7 0 6 -11 -3 -11 -9 -16 -10 -11 -2 4
6 3 12 -2 12 -5 0 -15 11 -22 25 -7 13 -16 23 -19 21 -9 -6 -31 21 -24 28 4 3
-1 6 -10 6 -10 0 -17 7 -17 16 0 8 -4 13 -9 9 -5 -3 -12 4 -16 15 -3 11 -11
20 -16 20 -6 0 -7 6 -3 13 5 7 0 6 -11 -3 -10 -8 -16 -10 -12 -4 3 6 -3 16
-13 24 -10 8 -17 17 -14 22 3 4 -2 8 -10 8 -9 0 -16 8 -16 17 0 9 -3 14 -6 10
-7 -7 -34 15 -28 24 2 3 -8 12 -21 19 -14 7 -25 17 -25 22 0 5 -6 6 -12 2 -8
-5 -7 0 2 11 9 11 10 16 3 11 -7 -4 -13 -3 -13 3 0 5 -9 13 -20 16 -11 3 -20
14 -20 22 0 9 -3 14 -6 10 -8 -8 -33 16 -27 26 2 4 -3 7 -11 7 -9 0 -16 7 -16
16 0 8 -4 13 -9 9 -5 -3 -12 4 -16 15 -3 11 -11 20 -16 20 -6 0 -7 6 -3 13 5
7 0 6 -11 -3 -10 -8 -16 -10 -12 -4 3 6 -3 16 -13 24 -10 8 -17 17 -14 22 3 4
-2 8 -10 8 -9 0 -16 8 -16 17 0 9 -3 14 -6 10 -7 -7 -34 15 -28 24 2 3 -8 12
-21 19 -14 7 -25 17 -25 22 0 5 -6 6 -12 2 -8 -5 -8 -1 2 12 8 10 11 16 6 12
-5 -4 -14 -2 -22 5 -7 7 -20 18 -29 25 -8 7 -13 17 -10 22 3 5 -4 7 -15 5 -11
-2 -18 0 -15 6 4 5 -1 12 -9 15 -8 3 -18 14 -21 25 -4 10 -13 19 -21 19 -13 0
-18 12 -15 33 0 4 -2 6 -6 6 -20 -3 -34 2 -28 11 3 6 -1 10 -9 10 -9 0 -16 8
-16 17 0 9 -3 14 -6 10 -8 -8 -33 16 -27 26 2 4 -3 7 -11 7 -9 0 -16 7 -16 16
0 8 -4 13 -9 9 -5 -3 -12 4 -16 15 -3 11 -11 20 -16 20 -6 0 -7 6 -3 13 5 7 0
6 -11 -3 -11 -9 -16 -10 -11 -2 4 6 3 12 -2 12 -5 0 -15 11 -22 25 -7 14 -15
23 -18 21 -7 -7 -30 18 -25 27 2 4 -3 7 -11 7 -9 0 -16 7 -16 16 0 8 -4 13 -9
9 -5 -3 -12 4 -16 15 -3 11 -11 20 -16 20 -6 0 -7 6 -3 13 5 7 0 6 -11 -3 -10
-8 -16 -10 -12 -4 3 6 -3 16 -13 24 -10 8 -17 17 -14 22 3 4 -2 8 -10 8 -9 0
-16 8 -16 17 0 9 -3 14 -6 10 -7 -7 -34 15 -28 24 2 3 -8 12 -21 19 -14 7 -25
17 -25 22 0 5 -6 6 -12 2 -8 -5 -8 -1 2 12 8 10 11 16 6 12 -5 -4 -14 -2 -22
5 -7 7 -20 18 -29 25 -8 7 -13 17 -10 22 3 5 -4 7 -15 5 -11 -2 -18 0 -15 6 4
5 -1 12 -9 15 -8 3 -18 14 -21 25 -4 10 -13 19 -21 19 -13 0 -18 12 -15 33 0
4 -2 6 -6 6 -20 -3 -34 2 -28 11 3 6 -1 10 -9 10 -9 0 -16 8 -16 17 0 9 -3 14
-6 10 -8 -8 -33 16 -27 26 2 4 -3 7 -11 7 -9 0 -16 7 -16 16 0 8 -4 13 -9 9
-5 -3 -12 4 -16 15 -3 11 -11 20 -16 20 -6 0 -7 6 -3 13 5 7 0 6 -11 -3 -11
-9 -16 -10 -11 -2 4 6 3 12 -2 12 -5 0 -15 11 -22 25 -7 13 -17 22 -22 19 -7
-5 -12 10 -9 29 0 4 -2 6 -6 6 -21 -3 -33 2 -33 15 0 8 -9 17 -19 21 -11 3
-22 13 -25 21 -3 8 -10 13 -15 9 -6 -3 -8 3 -6 15 2 11 1 19 -3 19 -21 -3 -32
3 -32 18 0 9 -3 14 -6 10 -8 -8 -33 16 -27 26 2 4 -3 7 -11 7 -9 0 -16 7 -16
16 0 8 -4 13 -9 9 -5 -3 -12 4 -16 15 -3 11 -11 20 -16 20 -6 0 -7 6 -3 13 5
7 0 6 -11 -3 -11 -9 -16 -10 -11 -2 4 6 3 12 -2 12 -5 0 -15 11 -22 25 -7 14
-15 23 -18 21 -7 -7 -30 18 -25 27 2 4 -3 7 -11 7 -9 0 -16 7 -16 16 0 8 -4
13 -9 9 -5 -3 -12 4 -16 15 -3 11 -11 20 -16 20 -6 0 -7 6 -3 13 5 7 0 6 -11
-3 -10 -8 -16 -10 -12 -4 3 6 -3 16 -13 24 -10 8 -17 17 -14 22 3 4 -2 8 -10
8 -9 0 -16 7 -16 17 0 9 -3 14 -6 10 -7 -7 -34 15 -28 24 2 3 -8 12 -21 19
-14 7 -25 17 -25 22 0 5 -6 6 -12 2 -8 -5 -8 -1 2 12 8 10 11 16 6 12 -5 -4
-14 -2 -22 5 -7 7 -20 18 -29 25 -8 7 -13 17 -10 22 3 5 -4 7 -15 5 -11 -2
-18 0 -15 6 4 5 -1 12 -9 15 -8 3 -18 14 -21 25 -4 10 -13 19 -21 19 -13 0
-18 12 -15 33 0 4 -2 6 -6 6 -20 -3 -34 2 -28 11 3 6 -1 10 -9 10 -8 0 -18 9
-21 20 -3 11 -11 20 -16 20 -6 0 -7 6 -3 13 5 7 0 6 -11 -3 -11 -9 -16 -10
-11 -2 4 6 3 12 -2 12 -5 0 -15 11 -22 25 -7 14 -15 23 -18 21 -7 -7 -30 18
-25 27 2 4 -3 7 -11 7 -9 0 -16 7 -16 16 0 8 -4 13 -8 10 -5 -3 -14 4 -22 14
-8 10 -18 16 -24 13 -6 -4 -4 2 4 12 9 11 10 16 3 11 -7 -4 -13 -3 -13 2 0 5
-12 14 -26 21 -14 6 -24 17 -21 24 5 13 -5 15 -106 19 -54 2 -67 0 -68 -12 0
-10 -3 -8 -9 5 -5 11 -9 14 -9 7 -1 -10 -6 -10 -21 -2 -16 9 -20 8 -20 -7 0
-15 -2 -15 -15 3 -9 11 -14 14 -15 6 0 -9 -5 -10 -16 -4 -9 5 -31 6 -48 2 -38
-8 -67 -7 -85 5 -10 5 -12 4 -7 -3 4 -7 2 -12 -3 -12 -6 0 -11 5 -11 10 0 6
-5 10 -11 10 -5 0 -8 -4 -5 -9 7 -10 -20 -9 -30 2 -4 4 -13 -1 -21 -11 -8 -9
-12 -11 -8 -4 3 6 2 12 -4 12 -5 0 -17 3 -27 7 -11 4 -15 3 -10 -5 4 -7 -2 -9
-19 -6 -69 12 -85 11 -86 -5 0 -12 -2 -11 -9 4 -5 11 -9 15 -9 9 -1 -7 -16 -9
-46 -4 -24 4 -42 4 -40 0 2 -4 -14 -6 -35 -6 -22 1 -40 4 -40 9 0 4 -5 7 -11
7 -5 0 -8 -3 -6 -7 7 -10 -74 -9 -91 0 -6 5 -12 4 -12 0 0 -5 -9 -9 -20 -9
-11 0 -20 5 -20 11 0 5 -5 3 -10 -5 -6 -10 -10 -11 -10 -2 0 6 -4 12 -10 12
-5 0 -10 -8 -10 -17 0 -15 -2 -14 -15 3 -9 11 -14 14 -15 6 0 -9 -5 -10 -16
-4 -9 5 -31 6 -48 2 -38 -8 -67 -7 -85 5 -10 5 -12 4 -7 -3 4 -7 2 -12 -3 -12
-6 0 -11 5 -11 10 0 6 -5 10 -11 10 -5 0 -8 -4 -5 -9 7 -10 -20 -9 -30 2 -4 4
-13 -1 -21 -11 -8 -9 -12 -11 -8 -4 3 6 2 12 -4 12 -5 0 -16 3 -25 6 -11 4
-16 0 -16 -12 0 -17 -1 -16 -15 2 -9 11 -14 14 -15 6 0 -9 -5 -10 -16 -4 -10
5 -32 6 -52 1 -23 -5 -41 -4 -49 3 -8 7 -13 7 -13 0 0 -12 -32 -11 -42 2 -4 6
-14 4 -24 -5 -21 -17 -17 -17 -37 0 -15 12 -17 11 -17 -5 0 -16 -1 -17 -12 -1
-9 12 -17 14 -28 7 -8 -5 -10 -10 -5 -10 6 0 3 -5 -5 -10 -13 -8 -12 -10 3
-10 10 0 15 -4 12 -10 -3 -6 1 -7 10 -4 9 4 15 3 14 -2 -1 -5 -1 -16 0 -24 1
-12 3 -13 10 -1 7 11 10 9 16 -8 3 -12 11 -19 16 -16 5 3 6 -2 2 -11 -5 -13
-3 -15 7 -9 10 6 12 4 7 -9 -5 -13 -3 -17 7 -13 16 6 40 -16 29 -27 -4 -4 1
-4 11 0 14 5 17 4 12 -4 -4 -8 2 -16 16 -21 14 -6 17 -10 8 -11 -9 -1 -6 -5 8
-11 13 -5 20 -13 17 -19 -4 -6 -3 -9 2 -8 12 4 53 -34 47 -44 -3 -5 0 -7 8 -6
7 2 12 -3 11 -9 -2 -7 1 -13 7 -13 5 0 29 -20 53 -45 24 -24 48 -41 53 -37 4
4 2 -1 -5 -11 -12 -15 -12 -17 2 -11 10 3 22 -4 32 -20 10 -14 22 -23 28 -19
7 4 8 0 3 -13 -4 -10 -4 -15 0 -11 9 9 35 -13 28 -24 -5 -8 9 -13 29 -10 4 0
6 -5 5 -11 -2 -7 3 -12 10 -10 6 1 12 -7 12 -19 0 -16 4 -19 17 -15 10 4 14 4
11 1 -4 -4 9 -22 28 -41 19 -19 34 -39 34 -44 0 -6 6 -9 13 -8 6 2 11 -3 9
-10 -1 -8 2 -11 7 -8 13 8 34 -21 25 -35 -4 -7 -3 -9 3 -6 11 7 103 -77 103
-93 0 -6 6 -9 13 -8 6 2 11 -3 9 -10 -1 -6 1 -11 5 -10 13 4 52 -35 46 -45 -3
-6 -1 -7 6 -3 7 4 15 -2 20 -16 6 -14 10 -17 11 -8 1 9 5 6 11 -8 5 -14 13
-20 21 -16 8 5 9 2 4 -12 -4 -10 -4 -15 0 -11 9 9 35 -13 28 -24 -3 -5 -1 -9
4 -9 14 0 57 -41 54 -52 -1 -5 2 -7 8 -3 6 3 14 -4 19 -17 6 -14 10 -17 11 -8
1 9 5 6 11 -8 5 -14 13 -20 21 -16 8 5 9 2 4 -12 -4 -10 -4 -15 0 -11 9 9 35
-13 28 -24 -5 -8 9 -13 29 -10 4 0 6 -5 5 -11 -2 -7 3 -12 10 -10 6 1 12 -7
12 -19 0 -16 4 -19 17 -15 10 4 14 4 11 1 -4 -4 9 -22 28 -41 19 -19 34 -39
34 -44 0 -6 6 -9 13 -8 6 2 11 -3 9 -10 -1 -6 1 -11 5 -10 13 4 52 -35 46 -45
-3 -6 -1 -7 6 -3 6 4 14 0 17 -8 3 -9 11 -13 17 -9 6 4 8 0 4 -10 -4 -10 -2
-16 6 -14 7 1 11 -4 9 -10 -1 -7 2 -13 8 -13 5 0 25 -15 44 -34 19 -19 37 -32
41 -28 3 3 3 -1 -1 -11 -4 -13 -1 -17 15 -17 12 0 20 -6 19 -12 -2 -7 3 -12
10 -10 6 1 11 -1 11 -5 -3 -20 2 -34 10 -29 11 7 33 -19 24 -28 -4 -4 1 -4 11
0 13 5 17 4 13 -3 -4 -6 5 -18 19 -28 16 -10 23 -22 20 -32 -6 -14 -4 -14 11
-2 10 7 15 9 11 5 -4 -5 13 -29 37 -53 25 -24 45 -48 45 -53 0 -6 6 -9 13 -8
6 2 11 -3 9 -10 -1 -6 1 -11 5 -10 13 4 52 -35 46 -45 -3 -6 -1 -7 6 -3 7 4
15 -2 20 -16 6 -14 10 -17 11 -8 1 9 5 6 11 -8 5 -14 13 -20 21 -16 8 5 9 2 5
-10 -4 -9 -3 -15 2 -12 5 3 14 -1 21 -9 7 -8 9 -15 4 -15 -5 -1 4 -8 19 -16
19 -10 27 -21 23 -31 -6 -14 -4 -14 11 -2 10 7 15 9 11 5 -4 -5 13 -29 37 -53
25 -24 45 -48 45 -53 0 -6 6 -9 13 -8 6 2 11 -3 9 -10 -1 -6 1 -11 5 -10 13 4
52 -35 46 -45 -3 -6 -1 -7 6 -3 7 4 15 -2 20 -16 6 -14 10 -17 11 -8 1 9 5 6
11 -8 5 -14 13 -20 21 -16 8 5 9 2 5 -10 -4 -9 -3 -15 2 -12 11 7 33 -18 24
-27 -3 -4 -2 -7 4 -7 14 0 58 -40 55 -51 -1 -5 1 -8 5 -7 8 3 73 -57 73 -66 0
-3 -7 -2 -17 1 -12 5 -14 3 -8 -7 5 -9 4 -11 -4 -6 -6 4 -9 12 -6 17 3 5 -1 6
-9 3 -9 -3 -14 -9 -12 -13 6 -10 -42 -6 -51 4 -5 4 -2 5 6 0 9 -5 12 -4 7 3
-3 6 -16 8 -29 5 -39 -9 -81 -12 -92 -5 -16 10 -36 11 -29 1 3 -5 10 -7 15 -4
5 4 9 1 9 -5 0 -8 -7 -9 -17 -5 -30 12 -65 16 -60 8 7 -11 -41 -9 -50 2 -5 4
-2 5 6 0 9 -5 12 -4 7 3 -3 6 -16 8 -29 5 -39 -9 -81 -12 -92 -5 -16 10 -36
11 -29 1 3 -5 10 -7 15 -4 5 4 9 1 9 -5 0 -8 -7 -9 -17 -5 -30 12 -65 16 -60
8 7 -11 -41 -9 -50 2 -5 4 -2 5 6 0 9 -5 12 -4 7 3 -3 6 -16 8 -29 5 -39 -9
-81 -12 -92 -5 -16 10 -36 11 -29 1 3 -5 10 -7 15 -4 5 4 9 1 9 -5 0 -8 -7 -9
-17 -5 -30 12 -65 16 -60 8 7 -11 -41 -9 -50 2 -5 4 -2 5 6 0 9 -5 12 -4 7 3
-3 6 -16 8 -29 5 -39 -9 -81 -12 -92 -5 -16 10 -36 11 -29 1 3 -5 10 -7 15 -4
5 4 9 1 9 -5 0 -8 -7 -9 -17 -5 -30 12 -65 16 -60 8 7 -11 -41 -9 -50 2 -5 4
-2 5 6 0 9 -5 12 -4 7 3 -3 6 -16 8 -29 5 -39 -9 -81 -12 -92 -5 -16 10 -36
11 -29 1 3 -5 10 -7 15 -4 5 4 9 1 9 -5 0 -8 -7 -9 -17 -5 -30 12 -65 16 -60
8 7 -11 -41 -9 -50 2 -5 4 -2 5 6 0 9 -5 12 -4 7 3 -3 6 -16 8 -29 5 -39 -9
-81 -12 -92 -5 -16 10 -36 11 -29 1 3 -5 10 -7 15 -4 5 4 9 1 9 -5 0 -8 -7 -9
-17 -5 -30 12 -65 16 -59 7 2 -4 -10 -6 -27 -4 -18 2 -42 4 -54 5 -13 0 -23 5
-23 10 0 5 -7 1 -16 -7 -11 -12 -20 -13 -33 -6 -12 6 -22 5 -31 -3 -10 -9 -11
-9 -6 1 9 15 -35 17 -51 1 -7 -7 -13 -7 -17 -1 -4 7 -17 7 -36 2 -23 -7 -32
-5 -40 8 -9 16 -9 16 -10 -1 0 -14 -3 -15 -19 -5 -15 9 -23 9 -34 -1 -10 -7
-18 -8 -21 -2 -4 6 -18 6 -36 1 -23 -7 -32 -5 -40 8 -9 16 -9 16 -10 -1 0 -14
-3 -15 -19 -5 -15 9 -23 9 -34 -1 -10 -7 -18 -8 -21 -2 -4 6 -18 6 -36 1 -23
-7 -32 -5 -40 8 -9 16 -9 16 -10 -1 0 -14 -3 -15 -19 -5 -15 9 -23 9 -34 -1
-10 -7 -18 -8 -21 -2 -4 6 -18 6 -36 1 -23 -7 -32 -5 -40 8 -8 15 -9 15 -10
-2 0 -14 -3 -16 -13 -7 -8 6 -17 8 -20 5 -3 -3 -12 -2 -19 2 -19 12 -39 14
-32 3 3 -5 10 -7 15 -4 5 4 9 1 9 -5 0 -8 -7 -9 -17 -5 -30 12 -65 16 -60 8 7
-11 -41 -9 -50 2 -5 4 -2 5 6 0 9 -5 12 -4 7 3 -3 6 -16 8 -29 5 -39 -9 -81
-12 -92 -5 -16 10 -36 11 -29 1 3 -5 10 -7 15 -4 5 4 9 1 9 -5 0 -8 -7 -9 -17
-5 -30 12 -65 16 -60 8 7 -11 -41 -9 -50 2 -5 4 -2 5 6 0 9 -5 12 -4 7 3 -3 6
-16 8 -29 5 -39 -9 -81 -12 -92 -5 -16 10 -36 11 -29 1 3 -5 10 -7 15 -4 5 4
9 1 9 -5 0 -8 -7 -9 -17 -5 -30 12 -65 16 -60 8 7 -11 -41 -9 -50 2 -5 4 -2 5
6 0 9 -5 12 -4 7 3 -3 6 -16 8 -29 5 -39 -9 -81 -12 -92 -5 -16 10 -36 11 -29
1 3 -5 10 -7 15 -4 5 4 9 1 9 -5 0 -8 -7 -9 -17 -5 -30 12 -65 16 -60 8 7 -11
-41 -9 -50 2 -5 4 -2 5 6 0 9 -5 12 -4 7 3 -3 6 -16 8 -29 5 -39 -9 -81 -12
-92 -5 -16 10 -36 11 -29 1 3 -5 10 -7 15 -4 5 4 9 1 9 -5 0 -8 -7 -9 -17 -5
-30 12 -65 16 -59 7 2 -4 -10 -6 -27 -4 -18 2 -42 4 -54 5 -13 0 -23 5 -23 10
0 5 -7 1 -16 -7 -11 -12 -20 -13 -33 -6 -12 6 -22 5 -31 -3 -10 -9 -11 -9 -6
1 9 15 -35 17 -51 1 -7 -7 -13 -7 -17 -1 -4 7 -17 7 -36 2 -23 -7 -32 -5 -40
8 -9 16 -9 16 -10 -1 0 -14 -3 -15 -19 -5 -15 9 -23 9 -34 -1 -10 -7 -18 -8
-21 -2 -4 5 -18 6 -34 2 -33 -10 -55 -4 -45 12 4 7 0 7 -9 -1 -14 -11 -18 -10
-26 5 -5 10 -7 24 -5 31 3 6 1 12 -4 12 -5 0 -8 12 -7 28 0 15 -3 30 -8 33 -5
3 -4 18 2 34 10 26 9 27 -6 14 -15 -12 -16 -12 -10 9 4 12 3 22 -2 22 -11 0
-11 18 1 37 6 9 3 11 -8 7 -11 -4 -14 -2 -9 9 3 8 -2 30 -12 49 -17 32 -17 33
2 18 18 -15 18 -14 1 13 -10 15 -15 31 -12 36 2 5 -2 11 -10 15 -8 3 -12 12
-9 21 4 9 1 15 -7 15 -9 0 -10 3 -4 8 13 9 18 35 5 27 -9 -5 -15 18 -7 29 1 2
-7 14 -18 27 -11 12 -14 19 -7 15 6 -4 12 -2 12 3 0 6 -5 11 -12 11 -6 0 -8 3
-5 7 4 3 2 12 -4 20 -9 10 -8 13 2 13 8 0 4 8 -9 20 -24 23 -29 35 -9 24 6 -4
2 4 -11 18 -16 18 -20 28 -12 33 8 5 6 13 -7 28 -12 14 -13 18 -3 12 9 -5 8 0
-4 13 -18 21 -13 28 16 23 4 0 4 7 1 16 -4 10 -2 14 5 9 6 -3 13 3 17 14 6 18
17 25 38 21 5 -1 6 3 2 9 -3 5 -1 10 4 10 6 0 10 3 10 8 -3 19 2 25 11 12 8
-13 10 -13 10 1 0 9 12 24 26 34 16 10 23 22 20 32 -6 13 -4 14 9 3 9 -7 15
-9 13 -4 -1 5 41 54 95 108 53 55 97 104 97 110 0 6 4 5 9 -3 7 -11 10 -9 16
8 3 12 11 19 16 16 5 -4 9 -1 9 6 0 18 108 121 120 114 6 -4 7 1 3 11 -5 13
-2 16 8 12 11 -4 15 1 15 18 0 13 -4 24 -9 24 -4 0 -5 5 -2 10 3 6 1 10 -4 10
-6 0 -11 9 -11 19 0 11 -6 26 -13 33 -8 7 -12 19 -9 26 2 6 -1 12 -7 12 -6 0
-11 7 -11 15 0 8 -6 15 -12 15 -9 0 -8 4 2 10 13 8 12 10 -3 10 -10 0 -15 5
-12 10 3 6 1 10 -5 10 -6 0 -9 4 -6 9 3 4 -1 16 -8 27 -8 10 -11 24 -9 31 3 8
2 13 -3 11 -5 -2 -9 0 -9 4 0 4 -9 14 -20 22 -12 9 -15 15 -7 16 7 0 10 5 7
10 -4 6 -11 7 -17 4 -7 -4 -8 -2 -4 5 4 6 0 18 -8 27 -9 9 -14 20 -11 25 4 5
1 9 -5 9 -6 0 -9 4 -6 9 3 5 -1 11 -9 15 -8 3 -15 10 -15 17 0 6 -9 22 -20 36
-11 14 -17 29 -14 34 3 5 -3 9 -13 9 -12 0 -14 3 -6 8 9 6 7 12 -7 22 -11 8
-20 20 -20 28 0 7 -4 10 -10 7 -5 -3 -7 0 -4 8 3 8 0 18 -5 22 -6 3 -9 11 -5
16 3 5 2 8 -3 7 -4 -2 -9 1 -10 5 -1 4 -9 15 -18 23 -8 9 -13 20 -10 24 3 5
-3 15 -15 22 -11 7 -20 21 -20 30 0 16 -11 23 -33 19 -5 -1 -6 8 -2 19 5 14 2
20 -9 20 -9 0 -15 3 -13 8 4 14 -40 54 -48 43 -3 -6 -11 -9 -16 -6 -5 4 -9 3
-9 -2 0 -7 -22 -12 -77 -16 -12 0 -20 -4 -17 -8 2 -4 -3 -10 -12 -13 -10 -4
-13 -2 -8 7 6 9 5 9 -7 0 -9 -7 -25 -14 -37 -16 -12 -2 -24 -6 -28 -9 -3 -4
-13 -4 -22 -1 -10 4 -13 2 -8 -5 5 -8 2 -10 -9 -6 -8 4 -23 0 -32 -7 -14 -12
-16 -12 -8 1 8 13 7 13 -10 0 -10 -8 -21 -15 -24 -15 -3 0 -5 -4 -3 -9 2 -5
-3 -4 -12 3 -10 8 -16 9 -21 1 -3 -6 -11 -8 -16 -5 -5 4 -9 1 -9 -6 0 -8 -4
-8 -13 -1 -9 8 -21 6 -42 -8 -34 -23 -49 -26 -39 -7 4 6 -1 4 -12 -5 -16 -14
-23 -15 -34 -5 -10 9 -11 9 -6 0 4 -7 2 -14 -3 -14 -26 -3 -30 -4 -36 -11 -4
-4 -14 -4 -23 -1 -10 4 -13 2 -8 -5 4 -7 2 -12 -3 -12 -6 0 -11 6 -11 13 0 8
-3 8 -9 -2 -5 -8 -16 -11 -26 -8 -9 4 -14 3 -11 -1 2 -4 -11 -12 -29 -18 -25
-8 -32 -8 -28 0 4 6 -2 3 -13 -6 -14 -12 -24 -14 -37 -7 -9 6 -15 14 -12 20 4
5 -3 9 -15 9 -12 0 -19 4 -15 9 3 5 -5 21 -17 34 -13 14 -29 32 -36 41 -7 9
-18 13 -24 10 -8 -5 -9 -1 -5 10 5 12 0 19 -16 26 -12 5 -18 9 -13 9 4 1 -6
14 -23 30 -17 16 -31 37 -32 48 0 10 -3 13 -6 6 -3 -10 -7 -10 -18 0 -7 7 -11
15 -8 20 2 4 -3 7 -11 7 -9 0 -16 7 -16 16 0 8 -3 13 -7 11 -10 -6 -34 19 -26
27 4 3 -1 6 -10 6 -9 0 -17 7 -17 16 0 8 -3 13 -7 11 -11 -7 -33 19 -25 29 4
4 2 4 -5 1 -6 -4 -20 4 -31 18 -11 14 -25 25 -32 25 -6 0 -9 4 -6 8 3 5 -6 15
-19 22 -13 7 -22 17 -19 22 3 4 0 8 -5 8 -23 0 -26 2 -38 23 -6 12 -15 22 -20
21 -12 -1 -33 23 -26 30 6 5 -11 10 -29 7 -4 0 -6 8 -5 19 1 11 5 20 10 20 5
0 7 7 3 15 -3 8 0 15 6 15 7 0 7 4 -1 14 -9 11 -9 16 0 22 8 5 9 3 4 -6 -5 -8
-4 -11 3 -7 5 4 9 15 7 25 -1 9 5 26 14 36 9 11 11 16 4 13 -6 -4 -14 -3 -17
2 -3 5 4 11 15 14 17 5 19 9 10 25 -8 16 -7 21 5 26 14 5 14 9 3 23 -12 14
-12 16 0 8 11 -6 13 -4 8 8 -3 9 1 18 10 21 12 5 13 9 3 21 -8 10 -9 15 -2 15
7 0 9 7 5 17 -4 10 -2 14 5 9 7 -4 10 1 7 14 -2 11 3 26 11 34 10 11 11 15 1
19 -9 4 -9 7 0 18 9 9 10 16 1 26 -9 11 -7 12 8 7 10 -4 16 -3 11 1 -4 5 0 19
8 31 11 17 12 25 3 30 -7 5 -5 11 8 21 15 11 16 15 5 22 -9 6 -10 11 -2 15 6
4 9 12 6 17 -4 5 -1 9 5 9 6 0 8 5 5 10 -3 6 0 10 7 10 9 0 9 3 -2 10 -12 8
-12 10 -1 10 8 0 11 7 8 20 -3 13 -1 18 6 13 6 -4 8 0 4 10 -3 9 -2 19 4 23 6
3 8 12 5 19 -2 7 1 16 9 19 24 9 -5 51 -52 76 -24 13 -43 26 -43 30 0 4 -12
11 -26 14 -18 5 -24 11 -20 23 6 13 4 14 -9 3 -13 -11 -16 -11 -13 1 2 9 -5
14 -19 13 -15 -1 -20 3 -16 13 4 9 -2 16 -15 20 -12 3 -23 4 -25 2 -2 -2 -11
4 -21 14 -10 9 -22 15 -27 12 -5 -4 -6 1 -3 10 4 9 3 15 -2 14 -24 -4 -44 2
-42 14 2 6 -5 11 -14 9 -12 -2 -18 4 -18 15 0 15 -2 16 -10 3 -8 -12 -10 -12
-10 5 0 15 -3 17 -9 7 -7 -11 -9 -11 -14 2 -4 9 -13 16 -22 16 -8 0 -15 5 -15
11 0 5 -4 7 -10 4 -5 -3 -10 -1 -10 6 0 7 -3 9 -7 6 -8 -8 -34 13 -28 22 2 4
-2 8 -10 8 -8 0 -12 -4 -9 -9 3 -4 -2 -5 -10 -2 -9 3 -16 10 -16 16 0 5 -4 6
-10 3 -5 -3 -10 1 -10 9 0 9 -7 13 -19 11 -11 -2 -22 2 -24 9 -3 7 -24 18 -46
26 -23 7 -45 18 -48 23 -4 6 -1 7 7 2 9 -5 11 -4 6 4 -6 9 -11 9 -22 0 -13
-11 -18 -6 -15 14 1 5 -3 6 -8 3 -5 -4 -12 -2 -16 4 -4 6 -10 8 -15 5 -4 -3
-13 2 -20 10 -6 7 -19 11 -27 8 -12 -5 -14 -3 -8 7 6 10 4 12 -8 7 -9 -3 -18
-1 -21 6 -3 9 -5 8 -5 -1 -1 -7 -6 -10 -13 -6 -8 5 -9 2 -4 -12 4 -10 4 -15 0
-12 -3 4 -16 -4 -29 -17 -12 -14 -25 -22 -28 -18 -4 3 -7 -4 -7 -16 0 -12 -4
-19 -10 -16 -5 3 -10 1 -10 -5 0 -6 -5 -8 -12 -4 -8 5 -9 2 -5 -9 5 -13 1 -17
-14 -17 -11 0 -17 -4 -14 -10 3 -5 1 -10 -5 -10 -6 0 -8 -5 -4 -12 5 -8 2 -9
-9 -5 -9 3 -16 3 -14 -1 2 -9 -52 -62 -64 -62 -5 0 -6 -7 -2 -15 3 -10 0 -15
-8 -13 -8 2 -13 -3 -11 -11 2 -8 -3 -11 -12 -8 -9 4 -17 -1 -21 -14 -4 -10
-11 -16 -17 -13 -7 5 -8 2 -4 -5 8 -13 -23 -43 -36 -35 -4 3 -5 -2 -2 -10 3
-9 -2 -17 -15 -21 -12 -3 -19 -11 -16 -16 6 -9 -9 -14 -30 -9 -5 1 -7 -2 -3
-5 4 -4 -1 -15 -10 -24 -11 -10 -12 -12 -2 -6 13 9 13 8 1 -8 -8 -10 -20 -16
-27 -13 -9 3 -11 0 -7 -11 4 -11 2 -14 -5 -9 -7 4 -12 1 -12 -8 0 -17 -39 -48
-52 -40 -4 3 -5 -2 -2 -10 3 -9 -2 -17 -15 -21 -12 -3 -19 -11 -16 -16 9 -13
-19 -11 -33 3 -7 7 -12 8 -12 3 0 -4 -10 0 -22 11 -12 10 -18 13 -14 7 5 -9 2
-11 -8 -7 -9 3 -16 10 -16 15 0 5 -5 9 -11 9 -5 0 -7 -5 -4 -11 4 -6 -2 -5
-13 2 -12 7 -19 17 -16 21 3 4 -2 5 -11 2 -8 -4 -23 0 -32 7 -11 10 -14 10 -9
2 5 -9 2 -11 -8 -7 -9 3 -16 11 -16 17 0 6 -3 7 -7 4 -3 -4 -13 -1 -21 6 -13
10 -14 9 -7 -3 8 -13 6 -13 -8 -2 -9 8 -21 11 -27 7 -5 -3 -10 -2 -10 3 0 5
-7 9 -15 10 -8 1 -22 3 -30 4 -8 1 -15 5 -15 9 0 4 -7 10 -16 13 -8 3 -12 2
-9 -4 3 -6 1 -10 -4 -10 -6 0 -11 5 -11 11 0 5 -4 7 -10 4 -5 -3 -10 -1 -10 6
0 8 -4 8 -15 -1 -12 -10 -16 -9 -21 5 -5 13 -9 14 -15 3 -6 -8 -9 -9 -9 -1 0
6 -11 10 -25 8 -14 -1 -28 2 -31 6 -3 5 -16 9 -30 9 -13 0 -24 4 -24 9 0 5 -8
7 -19 4 -10 -3 -21 0 -25 5 -3 5 -19 8 -36 6 -16 -2 -30 0 -30 4 0 4 -10 8
-22 9 -13 0 -32 4 -42 8 -14 6 -17 5 -12 -3 11 -17 2 -15 -24 8 -13 11 -20 26
-17 35 4 8 3 14 -1 14 -19 -3 -23 2 -12 16 9 10 9 15 1 15 -6 0 -11 8 -11 18
0 10 -6 24 -12 31 -11 11 -10 13 2 7 8 -4 6 0 -4 8 -13 10 -15 16 -7 16 11 0
11 3 0 17 -12 14 -12 15 -1 9 11 -7 12 -4 3 11 -6 11 -7 23 -4 27 3 3 1 6 -6
6 -8 0 -11 8 -8 19 3 12 -1 22 -10 25 -12 5 -13 9 -4 20 9 11 8 15 -6 20 -15
6 -15 8 -3 16 12 7 11 10 -4 16 -10 4 -13 9 -7 13 7 5 6 16 -4 34 -8 15 -10
25 -6 22 5 -3 7 4 4 15 -3 11 -8 18 -12 16 -3 -2 -7 12 -8 32 -1 19 -6 38 -10
41 -5 3 -8 16 -7 29 1 12 -3 25 -8 28 -4 3 -6 10 -3 15 4 5 0 9 -7 9 -9 0 -9
3 2 10 8 5 10 10 4 10 -7 0 -15 7 -18 16 -4 10 -2 13 7 8 8 -6 8 -3 -1 9 -8 9
-11 21 -7 27 3 5 2 10 -4 10 -5 0 -8 11 -7 25 2 15 -1 22 -7 18 -6 -4 -8 0 -5
8 10 27 -20 54 -60 55 -21 0 -44 4 -50 8 -7 4 -12 2 -12 -6 0 -9 -3 -9 -10 2
-9 13 -10 13 -10 0 0 -9 -3 -11 -8 -5 -9 13 -42 13 -61 1 -9 -6 -12 -5 -8 1 4
6 -2 13 -13 16 -11 3 -23 1 -26 -4 -3 -6 -11 -5 -20 2 -11 9 -14 9 -14 -1 0
-10 -3 -10 -15 0 -11 9 -15 9 -15 1 0 -7 -5 -9 -12 -5 -20 12 -59 14 -52 2 4
-6 -1 -6 -14 1 -24 13 -35 14 -28 3 2 -4 -4 -8 -14 -8 -10 0 -17 3 -15 6 5 9
-97 6 -111 -3 -6 -3 -14 -4 -18 0 -7 8 -106 11 -101 3 2 -3 -7 -5 -20 -5 -13
0 -21 3 -18 8 2 4 -1 7 -6 7 -6 0 -11 -5 -11 -10 0 -7 -6 -7 -20 0 -16 9 -20
8 -20 -7 0 -15 -2 -15 -16 3 -8 10 -13 14 -10 8z m189 -1839 c26 0 47 3 47 8
0 5 6 4 14 -2 10 -9 16 -9 21 -1 5 8 11 8 21 -1 11 -9 14 -9 14 0 0 9 5 9 20
1 13 -7 20 -7 20 -1 0 7 9 7 25 1 17 -6 25 -6 25 1 0 6 5 7 10 4 6 -4 7 -12 3
-18 -5 -8 -2 -8 9 0 8 7 18 10 21 6 4 -3 7 0 7 8 0 11 2 12 9 1 4 -8 22 -15
39 -16 27 -2 30 0 19 13 -8 11 -5 11 9 -1 21 -18 39 -24 30 -10 -2 4 4 8 14 8
10 0 16 -4 14 -8 -3 -4 4 -8 16 -8 14 0 19 4 14 13 -5 8 -2 8 9 -2 9 -7 17
-10 17 -6 0 4 7 2 15 -5 12 -10 15 -10 15 1 0 9 3 10 8 4 4 -6 14 -10 22 -10
8 1 23 -6 33 -14 16 -14 17 -13 11 4 -6 14 -4 16 7 9 8 -4 19 -9 24 -11 6 -1
20 -4 33 -7 13 -3 22 0 22 6 0 7 7 3 16 -8 15 -18 15 -18 10 0 -6 16 -4 17 9
6 8 -7 12 -17 8 -24 -4 -6 1 -5 11 3 10 9 20 11 24 5 4 -5 18 -10 32 -11 62
-5 85 -8 90 -15 3 -4 18 -9 34 -12 16 -3 31 -8 34 -10 3 -3 11 -1 19 6 7 6 16
8 20 4 3 -3 0 -6 -7 -6 -9 0 -7 -5 6 -14 12 -9 23 -11 30 -5 8 6 14 4 18 -6 4
-13 10 -14 26 -5 16 9 22 8 26 -4 5 -12 10 -13 26 -5 11 6 18 7 15 2 -3 -5 -2
-15 4 -23 6 -11 9 -11 9 -2 0 10 5 10 20 2 11 -6 25 -8 30 -5 6 4 13 0 16 -9
3 -8 14 -13 25 -11 12 3 19 -2 19 -12 0 -13 3 -13 16 -3 13 11 16 10 21 -9 4
-16 8 -19 14 -10 6 10 11 10 22 1 7 -7 18 -8 22 -4 5 4 5 -1 2 -11 -5 -13 -3
-16 6 -10 17 11 37 13 37 3 0 -4 14 -13 30 -19 17 -5 30 -15 30 -21 0 -8 6 -7
21 1 12 6 19 7 16 2 -3 -5 12 -18 34 -30 22 -12 37 -16 33 -10 -3 7 1 4 10 -7
9 -11 21 -16 32 -12 11 4 15 2 11 -8 -4 -11 -1 -13 10 -9 11 4 14 2 9 -5 -5
-8 -2 -10 8 -6 10 4 16 1 16 -7 0 -7 3 -10 6 -6 9 8 64 -21 64 -34 0 -6 5 -7
11 -4 6 4 17 -2 25 -14 9 -12 20 -19 25 -16 5 4 12 -1 15 -9 3 -9 10 -13 16
-10 5 3 16 -2 24 -12 9 -11 12 -12 8 -4 -7 13 -5 13 9 1 9 -7 14 -17 11 -22
-3 -5 1 -6 9 -3 8 3 21 -2 30 -10 8 -8 17 -12 21 -9 3 4 6 -1 6 -10 0 -10 7
-15 20 -12 13 2 20 -2 20 -11 0 -8 8 -18 18 -21 9 -4 23 -14 30 -22 8 -9 11
-10 7 -4 -4 9 -1 11 9 7 9 -3 13 -10 10 -15 -3 -5 6 -13 20 -19 14 -5 26 -15
26 -21 0 -7 3 -9 7 -5 4 3 13 -4 20 -16 7 -13 12 -17 13 -10 0 10 3 10 14 0 8
-7 12 -16 9 -21 -2 -4 -1 -7 4 -6 21 4 33 -2 33 -17 0 -10 6 -14 15 -10 13 5
20 -5 16 -27 0 -4 2 -6 6 -5 15 3 43 -14 43 -27 0 -7 9 -15 21 -18 12 -3 18
-10 14 -16 -4 -7 0 -8 11 -4 12 4 15 3 10 -5 -4 -8 3 -16 18 -22 14 -5 26 -12
26 -15 0 -4 -4 -3 -10 0 -5 3 -10 1 -10 -4 0 -6 7 -11 16 -11 8 0 22 -7 31
-15 8 -8 18 -13 23 -10 4 3 6 -4 3 -15 -4 -14 -1 -20 8 -18 8 2 13 -3 11 -10
-1 -8 2 -11 7 -8 5 3 14 -1 21 -9 7 -8 9 -15 4 -15 -5 0 5 -9 22 -19 18 -11
35 -25 40 -33 4 -7 -3 -4 -16 7 l-24 20 20 -27 c10 -14 24 -25 29 -25 6 1 9
-4 7 -10 -1 -7 2 -13 6 -13 11 0 53 -36 55 -47 1 -4 10 -18 22 -31 11 -12 28
-32 38 -42 9 -11 17 -23 17 -26 0 -12 28 -33 35 -26 5 4 5 1 1 -6 -4 -6 0 -19
8 -28 9 -9 13 -21 9 -27 -4 -7 -1 -7 9 1 14 11 16 11 12 -5 -3 -12 4 -24 23
-35 15 -10 22 -18 14 -18 -10 0 -7 -6 7 -18 11 -10 22 -25 24 -32 5 -21 22
-39 32 -32 5 3 6 0 2 -6 -3 -6 -2 -13 4 -17 6 -4 8 -11 5 -16 -4 -5 -1 -9 4
-9 6 0 11 -5 11 -11 0 -7 8 -18 18 -26 11 -10 12 -12 2 -8 -11 5 -11 3 1 -7 9
-7 19 -22 21 -33 2 -11 9 -19 15 -18 7 2 10 -6 8 -17 -3 -13 0 -18 7 -14 7 5
9 1 5 -9 -3 -9 -3 -16 1 -16 22 4 30 -3 25 -21 -3 -11 0 -20 6 -20 6 0 11 -7
11 -15 0 -8 6 -15 13 -15 8 0 7 -4 -3 -10 -11 -7 -11 -10 -2 -10 7 0 10 -5 7
-10 -4 -6 -3 -10 2 -9 20 4 24 -2 12 -18 -10 -11 -10 -14 -1 -9 7 4 12 1 12
-9 0 -9 4 -13 10 -10 5 3 7 0 4 -8 -3 -8 2 -22 11 -31 9 -9 13 -16 9 -16 -4 0
1 -10 12 -22 12 -13 13 -18 4 -13 -13 8 -13 7 0 -11 8 -10 20 -22 25 -26 6 -4
6 -8 1 -8 -5 0 -2 -8 5 -17 12 -14 12 -15 1 -9 -11 7 -12 4 -2 -13 6 -12 15
-19 20 -16 4 3 6 -4 3 -14 -3 -10 3 -32 14 -47 10 -16 12 -25 6 -21 -7 5 -13
4 -13 -2 0 -6 7 -11 16 -11 8 0 13 -4 10 -9 -3 -4 3 -24 13 -44 10 -20 15 -34
10 -31 -5 3 -9 0 -9 -5 0 -6 5 -11 11 -11 6 0 8 -7 5 -16 -3 -8 -2 -13 3 -10
5 3 12 -1 15 -10 4 -10 2 -13 -7 -8 -9 6 -9 5 0 -8 7 -8 10 -18 6 -21 -3 -4
-2 -7 3 -7 5 0 10 -8 10 -17 1 -28 8 -47 19 -55 6 -5 4 -8 -5 -8 -10 0 -11 -3
-4 -8 6 -4 14 -19 18 -34 6 -28 0 -33 -33 -29 -7 2 -11 -2 -8 -6 3 -5 -9 -7
-26 -5 -18 2 -42 4 -54 5 -13 0 -23 5 -23 10 0 5 -7 1 -16 -7 -11 -12 -20 -13
-33 -6 -12 6 -22 5 -31 -3 -10 -9 -11 -9 -6 1 5 7 1 12 -9 12 -9 0 -13 -5 -10
-11 4 -6 -2 -5 -13 2 -16 10 -18 17 -11 30 6 12 5 20 -3 25 -7 5 -8 3 -3 -6 5
-8 4 -11 -3 -6 -6 4 -9 13 -5 21 3 9 -1 15 -8 15 -11 0 -11 3 1 10 10 6 11 10
3 10 -7 0 -13 9 -13 20 0 11 -4 20 -9 20 -5 0 -8 12 -6 26 1 15 -3 28 -12 31
-8 3 -12 12 -9 20 3 8 1 11 -4 8 -6 -4 -8 6 -6 24 2 18 -1 29 -8 28 -6 -1 -10
6 -8 17 2 12 -1 16 -9 10 -9 -5 -10 -2 -6 9 3 9 0 23 -8 31 -8 7 -11 16 -8 20
3 3 -2 16 -13 28 -13 14 -14 19 -4 14 8 -4 7 -1 -4 8 -10 8 -15 19 -11 25 3 6
1 11 -4 11 -6 0 -11 7 -11 15 0 8 -4 15 -10 15 -5 0 -10 9 -10 21 0 11 -4 18
-9 15 -4 -3 -7 6 -5 19 1 14 -2 25 -7 25 -10 0 -34 49 -31 63 1 4 -5 7 -14 7
-8 0 -13 4 -9 9 3 5 -3 17 -12 27 -10 10 -18 20 -18 23 0 3 -4 5 -9 3 -5 -2
-4 4 4 12 10 14 10 16 -5 16 -10 0 -16 3 -12 6 3 4 -4 15 -16 26 -12 11 -16
16 -9 13 11 -6 11 -3 0 14 -7 12 -16 21 -20 21 -4 0 -5 9 -3 19 3 15 -1 18
-12 14 -11 -4 -14 -2 -9 5 4 7 1 15 -8 18 -9 3 -13 10 -10 15 3 5 -3 9 -13 9
-15 0 -16 2 -3 10 13 8 12 10 -4 10 -11 0 -16 5 -13 14 3 8 -1 17 -9 20 -9 3
-12 10 -9 16 4 6 -1 7 -11 3 -11 -4 -15 -3 -10 5 3 6 -4 18 -16 26 -12 9 -19
16 -14 16 5 0 3 6 -3 13 -6 8 -9 17 -6 20 3 4 2 5 -1 2 -7 -5 -34 20 -34 31 0
4 -15 21 -32 37 -18 17 -26 27 -18 23 8 -4 6 -1 -4 8 -10 8 -23 13 -29 9 -6
-3 -7 -1 -3 5 4 6 -2 20 -14 32 -11 11 -20 26 -20 33 0 8 -4 7 -10 -3 -8 -13
-10 -13 -10 1 0 9 -7 20 -16 23 -10 4 -14 12 -10 22 5 12 1 14 -17 8 -12 -3
-19 -3 -15 1 9 10 -9 45 -24 45 -6 0 -24 16 -41 35 -16 19 -36 35 -44 35 -8 0
-11 5 -8 10 3 6 1 10 -5 10 -7 0 -25 14 -40 30 -15 17 -33 30 -40 30 -6 0 -8
5 -5 10 3 6 1 10 -5 10 -11 0 -24 9 -60 42 -10 9 -21 14 -24 11 -3 -4 -6 2 -7
13 0 10 -3 14 -5 7 -4 -8 -11 -7 -24 4 -10 9 -17 21 -13 25 3 5 -3 8 -13 6
-13 -2 -19 3 -18 14 1 9 -4 14 -11 12 -7 -3 -20 2 -29 11 -9 9 -16 14 -16 11
0 -3 -11 6 -25 20 -14 14 -30 22 -35 19 -6 -3 -13 1 -16 9 -3 9 -10 16 -16 16
-5 0 -6 -5 -2 -12 4 -7 3 -8 -5 -4 -6 4 -9 11 -6 16 3 5 1 11 -5 15 -5 3 -10
0 -10 -7 0 -8 -5 -6 -11 5 -5 9 -16 17 -23 17 -8 0 -17 7 -20 16 -4 9 -13 14
-21 10 -9 -3 -15 0 -15 9 0 7 -5 17 -12 21 -7 5 -8 3 -3 -7 7 -11 6 -12 -7 -2
-8 7 -18 10 -21 6 -4 -3 -7 -1 -7 6 0 7 -7 11 -14 8 -9 -4 -13 -1 -10 6 3 8
-5 13 -18 14 -13 1 -24 7 -26 13 -2 5 -8 8 -13 4 -5 -3 -9 -1 -9 5 0 5 -9 8
-20 6 -11 -2 -18 0 -15 6 6 8 -8 13 -27 10 -5 0 -8 4 -8 10 0 6 -6 9 -14 6 -8
-3 -22 3 -31 13 -10 11 -21 17 -26 15 -4 -3 -10 -1 -14 5 -4 6 -11 8 -16 5 -5
-4 -12 1 -15 10 -6 13 -8 14 -15 3 -6 -8 -9 -9 -9 -2 0 7 -7 15 -16 18 -8 3
-12 2 -9 -4 3 -6 -1 -7 -9 -4 -9 3 -16 11 -16 16 0 5 -6 8 -12 5 -7 -2 -22 3
-32 12 -16 13 -18 13 -11 1 7 -12 6 -13 -6 -3 -9 7 -26 14 -40 17 -13 2 -23 8
-22 13 1 6 -13 9 -32 8 -20 -1 -31 3 -28 8 4 6 -3 8 -15 5 -12 -3 -29 0 -39 7
-9 7 -24 10 -32 7 -7 -3 -20 3 -27 13 -8 10 -14 13 -14 7 0 -9 -5 -10 -19 -3
-10 6 -21 7 -25 4 -3 -3 -6 0 -6 8 0 11 -2 11 -10 -1 -5 -8 -10 -10 -10 -4 0
13 -34 27 -65 26 -11 0 -23 5 -27 12 -5 7 -8 7 -8 0 0 -13 -74 -8 -78 6 -3 7
-10 6 -23 0 -15 -9 -19 -7 -19 7 0 15 -2 16 -10 3 -6 -10 -10 -11 -10 -3 0 9
-7 10 -25 3 -19 -7 -27 -6 -34 8 -7 12 -10 13 -11 3 0 -11 -3 -11 -17 0 -11 9
-14 10 -9 2 5 -9 2 -11 -8 -7 -9 3 -16 11 -16 18 0 8 -2 8 -8 -1 -7 -12 -36
-12 -47 -1 -4 3 -20 2 -36 -2 -18 -5 -29 -5 -29 1 0 6 -6 6 -18 0 -11 -6 -24
-6 -32 -1 -9 5 -20 4 -29 -3 -12 -10 -13 -9 -7 1 6 10 1 12 -21 9 -15 -2 -34
1 -42 7 -12 9 -13 7 -7 -8 6 -19 6 -19 -11 -3 -12 10 -23 13 -33 7 -8 -5 -18
-6 -22 -3 -5 2 -15 0 -23 -7 -9 -8 -15 -8 -20 0 -4 6 -12 7 -23 1 -9 -5 -26
-5 -39 0 -15 5 -23 5 -23 -2 0 -6 -7 -6 -20 1 -15 8 -20 8 -20 -1 0 -7 -3 -9
-7 -6 -3 4 -13 1 -21 -6 -10 -8 -13 -8 -9 -1 4 7 0 14 -8 18 -8 3 -17 0 -21
-6 -5 -7 -2 -8 6 -3 9 5 11 4 6 -4 -4 -6 -12 -9 -17 -6 -19 12 -50 14 -43 3 5
-8 -3 -9 -24 -5 -17 4 -33 3 -36 -2 -3 -4 -23 -7 -45 -7 -22 1 -37 -3 -34 -8
4 -5 -1 -7 -9 -3 -9 3 -21 0 -27 -6 -9 -9 -14 -8 -21 3 -5 8 -10 10 -10 5 0
-11 -29 -17 -83 -18 -17 -1 -26 -6 -23 -13 3 -9 -3 -11 -20 -8 -14 3 -23 1
-20 -4 2 -4 -7 -8 -22 -7 -15 0 -30 -4 -34 -10 -5 -6 -8 -5 -8 3 0 7 -5 10
-10 7 -6 -4 -8 -10 -5 -15 7 -11 -29 -7 -37 5 -5 6 -8 4 -8 -5 0 -14 -13 -18
-63 -20 -9 -1 -15 -6 -11 -11 3 -6 0 -9 -7 -8 -8 2 -25 -3 -38 -10 -14 -8 -21
-9 -17 -2 10 16 0 14 -17 -4 -8 -8 -27 -16 -42 -19 -15 -3 -33 -13 -40 -22 -9
-13 -14 -14 -20 -4 -6 9 -4 11 5 5 9 -6 11 -4 5 5 -6 10 -11 10 -20 -3 -7 -9
-15 -14 -18 -10 -4 3 -7 1 -7 -6 0 -7 -4 -9 -10 -6 -5 3 -10 0 -10 -7 0 -9 -3
-9 -10 2 -8 13 -12 12 -27 -4 -17 -19 -17 -19 2 -5 18 13 19 12 7 -2 -7 -10
-21 -15 -31 -12 -10 3 -22 -1 -26 -8 -6 -8 -4 -10 5 -4 9 5 11 4 6 -4 -6 -9
-11 -9 -22 0 -13 11 -18 6 -15 -15 1 -5 -5 -6 -14 -3 -8 4 -15 1 -15 -4 0 -6
-9 -9 -20 -6 -11 3 -18 2 -15 -3 3 -4 -3 -14 -12 -21 -12 -10 -14 -10 -9 -1 4
6 2 12 -3 12 -6 0 -11 -7 -11 -15 0 -9 -6 -12 -15 -9 -8 4 -15 1 -15 -5 0 -6
-3 -10 -7 -10 -22 4 -33 -2 -27 -13 5 -8 2 -8 -10 1 -9 8 -16 10 -14 5 2 -5
-1 -10 -5 -11 -5 -1 -14 -9 -21 -19 -7 -9 -18 -14 -24 -10 -7 4 -12 1 -12 -9
0 -9 -4 -13 -10 -10 -5 3 -10 1 -10 -4 0 -6 -6 -10 -12 -8 -7 1 -12 -3 -11
-10 2 -8 -4 -10 -14 -6 -10 4 -14 2 -9 -5 4 -7 -1 -10 -14 -7 -11 2 -18 0 -15
-4 2 -5 -3 -15 -12 -22 -9 -8 -14 -9 -10 -3 3 6 0 11 -7 11 -8 0 -12 -6 -9
-14 4 -9 0 -11 -13 -6 -12 4 -15 3 -10 -5 6 -11 -5 -17 -26 -13 -5 0 -7 -5 -5
-12 1 -6 -4 -11 -10 -10 -7 2 -13 -5 -14 -15 0 -11 -2 -13 -6 -4 -4 10 -9 8
-20 -7 -8 -12 -19 -19 -24 -15 -5 3 -8 0 -7 -8 2 -7 -3 -12 -9 -10 -7 1 -13
-2 -13 -8 0 -5 -7 -10 -16 -10 -8 0 -12 -4 -9 -10 3 -5 -1 -10 -9 -10 -9 0
-16 -5 -16 -11 0 -5 -4 -8 -9 -4 -5 3 -13 -4 -16 -16 -6 -17 -9 -19 -16 -8 -7
11 -9 10 -9 -3 0 -10 -7 -18 -15 -18 -9 0 -12 -6 -8 -17 4 -11 3 -14 -5 -9 -7
4 -30 -12 -57 -39 -25 -26 -53 -48 -62 -50 -11 -1 -17 -9 -15 -20 3 -12 -1
-16 -12 -12 -10 4 -13 1 -9 -9 3 -9 -2 -14 -17 -14 -15 0 -20 -5 -17 -14 5
-14 -18 -31 -36 -27 -5 1 -6 -3 -2 -8 3 -6 -12 -28 -35 -51 -22 -22 -40 -44
-40 -49 0 -5 -9 -13 -21 -16 -11 -4 -18 -9 -15 -12 3 -3 -6 -16 -19 -29 -14
-13 -26 -27 -28 -31 -1 -5 -4 -7 -8 -6 -3 1 -11 -8 -19 -20 -12 -21 -12 -21 6
-8 10 8 8 3 -6 -10 -14 -14 -34 -31 -45 -38 -19 -11 -19 -12 3 -6 20 6 18 1
-13 -30 -33 -32 -41 -48 -44 -79 -1 -4 -8 -6 -16 -2 -10 4 -15 -1 -15 -15 0
-11 -4 -18 -9 -15 -11 7 -23 -22 -14 -36 4 -7 1 -8 -7 -3 -10 6 -12 3 -8 -13
4 -14 2 -19 -7 -16 -7 3 -16 0 -21 -7 -5 -8 -3 -10 5 -4 9 5 9 1 -1 -14 -7
-12 -16 -21 -20 -21 -4 0 -5 -7 -2 -15 4 -11 2 -13 -9 -9 -12 4 -15 -1 -13
-20 2 -14 -1 -23 -5 -20 -5 3 -9 -2 -9 -11 0 -9 -4 -14 -9 -11 -5 3 -12 -1
-15 -10 -4 -10 -2 -13 7 -9 6 4 3 -1 -7 -9 -11 -9 -16 -16 -11 -16 4 0 0 -10
-11 -22 -12 -13 -13 -18 -4 -13 12 7 13 6 3 -7 -7 -8 -9 -19 -5 -23 4 -5 1 -5
-5 -1 -7 4 -14 2 -14 -3 -1 -6 -2 -17 -3 -23 -1 -7 -7 -12 -13 -11 -6 1 -10
-8 -9 -20 1 -13 -4 -21 -12 -19 -10 2 -10 -2 -1 -19 8 -15 8 -19 0 -15 -6 4
-11 0 -11 -9 0 -10 -5 -13 -12 -9 -8 5 -9 2 -5 -9 3 -9 0 -23 -8 -30 -7 -8
-11 -18 -7 -23 4 -5 5 -8 3 -7 -6 4 -32 -49 -27 -54 3 -3 -4 -21 -15 -40 -11
-19 -15 -32 -9 -28 6 3 7 0 4 -9 -3 -9 -10 -14 -14 -11 -4 2 -7 -3 -7 -13 0
-35 -3 -42 -20 -43 -15 0 -15 -2 2 -9 l20 -9 -20 0 c-14 -1 -16 -4 -7 -10 10
-6 10 -10 -3 -21 -11 -9 -12 -16 -5 -25 7 -9 6 -16 -5 -25 -11 -9 -12 -16 -5
-25 8 -10 8 -15 -1 -21 -8 -5 -9 -3 -4 6 5 9 4 11 -4 6 -9 -6 -9 -11 1 -24 11
-13 11 -14 -1 -7 -11 6 -13 2 -9 -19 3 -14 1 -29 -4 -32 -4 -3 -6 -10 -2 -15
3 -6 -1 -18 -9 -27 -8 -9 -13 -27 -12 -39 1 -13 -3 -23 -8 -23 -6 0 -7 -3 -4
-7 4 -3 1 -13 -6 -21 -10 -13 -9 -14 1 -8 11 7 12 4 3 -13 -7 -11 -9 -21 -5
-21 3 0 1 -6 -5 -14 -6 -7 -8 -21 -5 -31 4 -10 1 -21 -7 -26 -8 -5 -9 -9 -3
-9 6 0 10 -10 8 -22 -1 -13 -3 -27 -3 -31 -1 -5 -5 -5 -11 -2 -7 4 -7 -3 0
-19 8 -21 6 -26 -6 -26 -8 0 -12 -5 -9 -10 4 -6 12 -7 18 -3 8 5 8 2 0 -9 -7
-8 -10 -18 -6 -21 3 -4 0 -7 -7 -7 -11 0 -11 -3 -2 -12 8 -8 8 -15 1 -24 -6
-8 -6 -14 0 -18 11 -7 2 -46 -11 -46 -5 0 -2 -7 6 -16 14 -14 14 -17 1 -30
-17 -17 -20 -28 -6 -20 5 3 12 -1 15 -10 5 -12 2 -15 -10 -10 -14 5 -15 4 -4
-9 9 -11 9 -15 1 -15 -7 0 -9 -5 -5 -12 4 -7 7 -44 5 -83 -1 -38 -2 -77 -1
-85 0 -8 0 -23 1 -32 0 -10 6 -18 12 -18 8 0 8 -3 2 -8 -12 -9 -15 -52 -3 -52
5 0 4 -9 -2 -20 -8 -15 -8 -20 1 -20 8 0 8 -4 -1 -15 -8 -9 -8 -15 -2 -15 6 0
11 -8 11 -17 0 -21 7 -80 17 -143 4 -25 8 -54 9 -65 1 -11 4 -21 5 -22 1 -2 3
-11 4 -20 1 -10 5 -24 9 -30 6 -9 3 -11 -10 -7 -17 5 -17 5 1 -10 10 -8 15
-19 11 -25 -3 -6 -1 -11 5 -11 6 0 8 -5 5 -10 -4 -6 0 -24 9 -40 10 -21 11
-30 3 -31 -8 0 -8 -2 1 -6 6 -2 10 -9 6 -14 -3 -5 0 -9 5 -9 6 0 11 -5 11 -11
0 -5 -5 -7 -11 -3 -7 4 -6 -3 2 -17 7 -13 13 -34 13 -47 1 -12 8 -27 16 -32
12 -8 12 -10 1 -10 -11 0 -11 -3 -1 -15 7 -8 9 -15 4 -15 -5 0 -1 -5 9 -11 14
-8 16 -14 6 -25 -9 -11 -9 -14 0 -14 7 0 10 -4 7 -9 -3 -5 1 -12 10 -15 8 -3
12 -10 9 -16 -3 -5 -1 -18 4 -27 7 -13 10 -14 11 -4 0 8 2 12 5 9 3 -3 1 -17
-4 -32 -8 -19 -7 -25 2 -23 7 1 12 -5 13 -13 0 -8 8 -30 18 -49 12 -22 13 -31
4 -25 -17 10 11 -27 29 -39 7 -4 10 -14 7 -22 -4 -8 -1 -15 5 -15 6 0 8 -7 5
-15 -5 -11 -2 -13 10 -9 14 5 15 2 7 -19 -8 -21 -7 -25 5 -20 10 4 12 1 7 -13
-5 -12 -3 -15 6 -9 10 6 11 2 6 -15 -5 -15 -4 -20 4 -16 6 4 13 -4 17 -19 3
-14 11 -25 17 -25 6 0 7 -3 4 -7 -4 -3 1 -15 10 -26 13 -15 14 -19 3 -13 -9 4
-8 2 2 -7 10 -8 18 -21 18 -30 0 -8 7 -17 15 -21 8 -3 15 -15 15 -26 0 -12 4
-19 9 -15 5 3 15 -10 22 -29 7 -19 16 -33 21 -30 4 3 8 -2 8 -12 0 -9 10 -25
22 -35 14 -13 16 -19 7 -19 -12 0 -12 -2 1 -9 8 -6 19 -7 25 -3 5 3 4 -2 -4
-11 -13 -17 -13 -18 12 -21 6 0 12 -8 12 -16 1 -8 7 -14 14 -12 7 1 10 -2 7
-7 -4 -5 2 -14 11 -20 10 -6 14 -11 9 -11 -5 0 -3 -7 4 -15 7 -8 16 -12 21 -9
5 3 6 -1 3 -9 -3 -8 2 -20 10 -27 9 -7 13 -17 9 -23 -4 -7 0 -8 13 -3 10 4 15
4 11 0 -4 -4 1 -13 11 -21 11 -10 12 -12 2 -8 -8 4 -6 -1 4 -9 11 -9 23 -16
28 -16 4 0 8 -5 8 -11 0 -14 47 -59 54 -52 3 3 3 -4 1 -16 -2 -12 0 -19 4 -16
12 7 33 -20 23 -29 -4 -4 -2 -7 3 -6 22 5 35 -1 32 -12 -1 -7 4 -12 12 -10 12
3 12 1 0 -14 -12 -16 -12 -17 3 -12 10 4 19 1 22 -8 3 -9 11 -12 17 -8 8 4 9
3 5 -4 -4 -7 -2 -12 3 -12 6 0 11 -7 11 -16 0 -14 3 -14 15 -4 13 10 15 9 15
-9 0 -12 6 -21 16 -21 8 0 12 -4 9 -10 -3 -5 -1 -10 5 -10 17 0 40 -26 32 -35
-4 -5 1 -5 10 -2 11 4 19 0 23 -14 4 -10 15 -19 26 -19 10 0 19 -5 19 -11 0
-19 26 -39 51 -39 5 0 7 -4 4 -10 -3 -5 1 -10 9 -10 9 0 16 -5 16 -11 0 -5 5
-7 10 -4 6 3 10 -1 10 -9 0 -8 5 -18 12 -22 7 -5 8 -3 3 7 -8 13 17 -5 53 -39
7 -7 18 -10 23 -7 5 4 9 -3 9 -15 0 -12 4 -19 9 -15 5 3 12 1 16 -5 4 -6 11
-8 16 -5 5 4 9 1 9 -5 0 -6 5 -8 10 -5 6 3 10 1 10 -4 0 -6 7 -11 15 -11 8 0
15 -8 16 -17 0 -11 3 -13 6 -5 3 8 11 5 25 -10 11 -13 17 -16 13 -8 -4 8 2 6
12 -6 10 -11 24 -19 31 -16 6 2 12 -5 13 -15 0 -11 3 -13 6 -5 4 10 9 8 21 -5
10 -10 24 -19 32 -21 8 -2 17 -8 18 -13 2 -5 12 -9 22 -9 10 0 22 -5 25 -11 4
-6 13 -8 20 -5 7 2 16 -2 19 -10 3 -8 12 -14 21 -14 8 0 15 -5 15 -11 0 -8 6
-7 17 2 9 8 14 9 10 3 -4 -7 1 -18 10 -25 14 -12 16 -12 9 1 -6 13 -6 13 6 0
7 -9 22 -16 33 -16 11 0 19 -5 18 -11 -1 -6 8 -10 22 -8 14 1 25 -2 25 -6 0
-5 7 -9 15 -9 8 0 15 -5 15 -11 0 -8 4 -8 13 0 10 8 19 6 35 -9 13 -12 28 -17
38 -13 13 5 15 3 9 -7 -6 -10 -3 -12 13 -8 12 4 22 2 22 -4 0 -5 6 -8 12 -6 7
3 21 -4 32 -13 10 -10 23 -16 29 -12 5 3 13 -1 18 -8 7 -12 9 -12 9 0 0 11 3
11 15 1 8 -7 15 -9 15 -5 0 4 8 1 17 -6 11 -9 14 -10 9 -2 -5 9 -2 11 8 7 9
-3 16 -11 16 -18 0 -6 5 -4 10 4 7 12 10 12 10 1 0 -7 6 -11 15 -7 8 3 15 0
16 -7 0 -9 2 -9 6 0 3 10 9 9 21 -3 11 -11 17 -13 20 -5 2 7 10 5 20 -7 10
-10 13 -11 7 -3 -7 11 -7 13 2 7 7 -4 23 -9 35 -11 12 -3 25 -10 30 -17 6 -11
8 -11 8 0 0 9 5 10 19 3 10 -6 21 -8 23 -5 3 2 17 0 30 -5 18 -7 29 -6 37 2 8
8 11 7 11 -3 0 -7 3 -10 7 -7 3 4 13 1 21 -6 13 -9 14 -9 8 1 -11 18 10 15 30
-5 13 -13 18 -15 22 -5 3 9 7 10 17 2 10 -8 15 -8 20 0 5 8 14 6 28 -7 11 -10
17 -12 13 -5 -4 7 -1 12 9 12 9 0 14 -3 12 -7 -3 -5 6 -8 19 -8 13 0 24 4 24
9 0 6 7 1 15 -10 15 -19 15 -19 9 1 -6 16 -5 18 7 7 17 -16 32 -16 23 1 -6 9
-4 9 7 -1 16 -15 33 -16 23 0 -5 7 -3 8 7 2 8 -5 25 -9 39 -10 14 -1 41 -3 60
-5 20 -1 41 1 48 5 7 4 12 2 12 -5 0 -7 4 -8 13 -2 6 4 42 8 79 8 38 0 68 3
68 7 0 4 12 5 26 2 14 -3 32 0 39 6 10 8 15 8 21 -1 5 -8 3 -9 -6 -4 -9 5 -11
4 -6 -4 6 -9 11 -9 22 0 8 6 14 8 14 4 0 -4 7 -2 15 5 12 10 15 10 15 -1 0
-10 3 -10 12 -1 9 9 15 9 27 -1 10 -8 12 -8 8 -1 -4 7 0 14 8 18 8 3 15 0 15
-7 0 -8 4 -6 10 3 5 8 10 12 10 8 0 -4 14 -3 30 2 21 6 30 5 30 -3 0 -7 5 -4
11 6 8 14 14 16 25 6 10 -8 14 -8 14 0 0 6 5 11 11 11 5 0 7 -6 3 -12 -4 -7 3
-4 16 7 14 12 20 14 15 5 -6 -12 -5 -12 5 -3 7 6 19 9 26 6 8 -3 14 0 14 7 0
9 4 9 17 -1 14 -12 16 -12 8 0 -6 11 -4 13 8 8 9 -3 19 -2 23 4 3 6 12 8 20 5
8 -3 14 -1 14 5 0 6 5 7 10 4 6 -3 10 -2 10 3 0 13 33 10 42 -3 4 -6 8 -2 8 9
0 16 2 17 17 5 11 -10 14 -10 9 -1 -7 12 4 16 32 13 6 -1 12 3 12 9 0 5 5 10
11 10 5 0 7 -6 3 -12 -4 -7 3 -4 16 7 15 13 21 15 16 5 -5 -9 -2 -8 7 2 8 10
17 15 20 11 4 -3 13 -1 20 5 8 7 17 9 20 5 4 -3 7 -1 7 6 0 7 5 9 10 6 6 -3
10 0 11 7 0 10 2 10 6 -1 4 -10 7 -10 13 -1 4 6 13 12 21 14 38 6 59 18 52 29
-4 8 -1 7 9 -1 11 -9 18 -10 23 -2 3 6 11 8 16 5 5 -4 9 1 9 11 0 14 2 15 17
3 9 -8 14 -9 10 -3 -4 7 3 14 18 18 14 4 25 11 25 17 0 6 4 8 9 5 14 -9 42 5
34 17 -4 6 2 8 15 5 12 -4 20 -2 16 3 -3 5 4 9 16 9 12 0 18 4 15 10 -4 6 1 7
11 3 12 -4 15 -3 10 5 -4 8 -2 10 7 6 8 -3 21 2 30 10 8 8 17 12 21 9 3 -3 8
2 12 11 3 9 11 13 16 10 6 -4 14 0 19 7 4 8 14 14 21 14 7 1 12 6 11 13 -2 6
4 9 12 6 8 -4 17 1 21 9 3 9 12 13 19 11 8 -3 19 3 26 14 7 11 19 18 26 15 8
-3 13 0 11 7 -2 7 4 14 13 15 22 4 69 35 69 46 0 5 6 8 13 6 6 -1 11 4 10 11
-2 6 6 12 18 12 13 0 18 4 13 12 -5 8 -2 9 9 5 11 -4 17 -1 17 8 0 7 5 17 12
21 7 5 9 2 4 -7 -4 -8 -1 -6 7 4 8 9 20 17 26 17 7 0 9 5 5 12 -5 8 -2 9 9 5
10 -4 16 -2 14 6 -1 7 4 11 11 10 6 -2 12 2 12 8 0 5 5 7 10 4 6 -4 10 -3 9 2
-5 26 1 35 16 23 12 -10 14 -8 10 9 -2 12 0 19 5 16 12 -7 51 31 42 41 -4 4 2
4 12 0 15 -5 17 -4 7 8 -9 11 -8 14 6 12 10 0 17 5 15 12 -1 8 2 11 7 8 5 -4
14 2 20 11 6 10 11 15 11 11 0 -5 8 0 18 10 11 9 18 19 16 22 -2 6 28 35 36
35 3 0 4 3 3 7 -2 5 0 7 5 5 4 -1 9 3 11 8 9 19 26 33 35 27 5 -3 7 2 3 11 -6
16 3 22 26 18 5 -1 6 3 2 9 -3 5 -1 10 5 10 6 0 8 5 4 12 -5 8 -2 9 10 5 10
-4 15 -3 11 3 -4 6 1 17 9 26 9 8 16 12 17 7 0 -4 4 2 10 15 5 14 13 20 20 16
8 -4 9 -3 5 5 -4 6 0 14 8 17 9 3 13 10 10 15 -3 5 1 12 10 15 9 3 12 12 9 21
-4 11 -2 14 5 9 7 -4 12 -2 12 4 0 6 4 8 10 5 6 -3 7 1 4 9 -3 9 -1 16 5 16 6
0 11 7 11 16 0 8 5 12 10 9 9 -6 14 8 11 28 0 4 7 7 16 7 9 0 14 3 10 6 -3 4
2 14 11 23 10 9 13 14 7 11 -6 -3 -2 3 8 13 11 9 15 17 11 17 -5 0 -1 5 9 11
9 6 15 14 12 20 -4 5 -1 9 5 9 7 0 9 7 6 16 -3 8 -2 13 2 11 9 -6 26 13 30 33
2 8 8 20 15 25 7 6 12 17 12 25 0 8 6 14 13 12 8 -1 11 1 8 6 -3 5 4 19 15 30
13 14 15 22 7 22 -8 0 -9 3 -3 8 14 9 58 85 45 77 -5 -3 -10 -1 -10 4 0 6 7
11 15 11 8 0 14 3 14 8 -3 18 2 33 9 28 5 -3 9 1 10 9 1 8 3 22 4 30 1 8 5 15
10 15 4 0 7 6 5 13 -1 6 3 11 9 10 6 -1 11 6 10 15 -1 23 26 92 36 92 4 0 8 5
8 11 0 5 -6 7 -12 4 -7 -4 -6 -1 3 7 9 7 14 19 11 27 -3 8 0 11 7 7 7 -5 9 -1
5 8 -3 9 -1 16 4 16 6 0 9 9 7 20 -2 12 2 20 9 20 8 0 12 10 11 25 -2 14 1 25
6 25 4 0 5 7 2 17 -4 9 -2 14 3 11 5 -4 10 8 11 24 1 17 10 42 18 55 16 24 17
24 38 6 11 -10 17 -13 14 -6 -4 6 -3 14 2 17 5 3 12 -1 15 -10 5 -13 9 -14 21
-4 12 10 18 10 29 1 10 -9 16 -9 21 -1 5 8 11 7 23 -2 9 -8 13 -8 9 -2 -9 16
18 25 32 11 8 -8 11 -8 11 2 0 7 5 9 10 6 6 -4 7 -12 3 -18 -4 -7 1 -6 10 2
10 8 20 11 24 7 3 -3 1 -6 -7 -6 -9 0 -10 -3 -1 -14 7 -8 8 -16 2 -18 -8 -3
-20 -46 -23 -85 -1 -7 -5 -13 -9 -13 -5 0 -5 -7 -2 -17 4 -10 2 -14 -5 -9 -7
4 -10 -1 -7 -14 2 -11 -3 -24 -13 -30 -9 -5 -12 -10 -5 -10 7 0 10 -7 7 -15
-4 -8 -11 -12 -18 -8 -6 4 -4 -2 4 -12 8 -10 10 -16 4 -12 -10 6 -25 -31 -28
-70 -1 -6 -8 -19 -17 -30 -9 -10 -15 -30 -14 -45 1 -17 -2 -25 -11 -21 -8 3
-11 -4 -10 -21 2 -14 0 -25 -3 -24 -18 2 -22 -4 -11 -17 11 -13 10 -14 -3 -9
-12 4 -15 1 -12 -15 2 -12 0 -19 -6 -16 -5 4 -9 -3 -9 -15 0 -11 -7 -23 -15
-26 -8 -4 -12 -10 -9 -15 3 -5 1 -9 -5 -9 -6 0 -8 -7 -5 -15 4 -8 1 -15 -6
-15 -6 0 -8 -4 -5 -10 3 -5 1 -10 -5 -10 -6 0 -8 -4 -5 -10 3 -5 1 -10 -4 -10
-6 0 -10 -3 -9 -7 3 -14 -21 -63 -31 -63 -5 0 -12 -11 -15 -25 -4 -14 -11 -23
-16 -20 -6 3 -7 -1 -4 -9 4 -9 1 -16 -6 -16 -7 0 -10 -8 -7 -20 3 -10 2 -19
-2 -18 -21 2 -29 -4 -26 -22 2 -11 0 -18 -4 -16 -8 5 -36 -43 -33 -56 1 -5 -2
-8 -7 -8 -5 0 -16 -12 -26 -26 -11 -18 -13 -24 -4 -19 8 5 5 -1 -6 -12 -11
-11 -24 -18 -29 -15 -5 3 -7 -1 -4 -9 6 -16 -16 -42 -27 -31 -4 4 -6 2 -5 -3
5 -21 0 -36 -10 -30 -5 3 -10 -1 -10 -11 0 -15 -19 -40 -67 -89 -13 -12 -23
-27 -23 -34 0 -6 -5 -11 -11 -11 -5 0 -8 -4 -4 -10 3 -5 -7 -16 -22 -24 -15
-8 -28 -18 -28 -23 0 -4 -3 -7 -7 -6 -5 2 -8 -2 -8 -8 0 -14 -26 -39 -40 -39
-7 0 -10 -7 -6 -15 3 -10 -1 -15 -11 -15 -9 0 -14 -3 -10 -6 3 -3 -10 -21 -30
-39 -20 -18 -33 -38 -29 -44 4 -6 2 -9 -7 -5 -8 3 -17 -2 -20 -10 -4 -9 -14
-16 -22 -16 -9 0 -13 -4 -10 -10 3 -5 -1 -10 -10 -10 -9 0 -13 -4 -10 -10 6
-9 -7 -14 -27 -11 -4 0 -5 -5 -2 -13 3 -8 0 -17 -7 -22 -8 -4 -10 -3 -5 4 4 7
2 12 -3 12 -6 0 -11 -6 -11 -14 0 -8 -9 -17 -20 -21 -11 -3 -19 -12 -17 -18 1
-7 -4 -11 -10 -10 -7 2 -13 -2 -13 -8 0 -5 -5 -7 -10 -4 -6 4 -9 1 -8 -6 2 -7
-7 -18 -19 -24 -13 -7 -20 -15 -16 -18 3 -4 -1 -7 -10 -7 -9 0 -20 -8 -26 -17
-5 -10 -13 -18 -18 -18 -4 0 -7 -3 -6 -7 2 -5 0 -7 -5 -6 -16 3 -48 -18 -79
-51 -18 -19 -35 -32 -39 -28 -4 4 -17 -4 -28 -16 -12 -13 -28 -21 -35 -19 -10
3 -12 -1 -8 -12 4 -10 3 -15 -3 -11 -6 3 -10 2 -10 -4 0 -5 -9 -8 -20 -6 -11
2 -18 0 -15 -5 3 -5 -6 -12 -20 -16 -13 -3 -23 -10 -20 -14 3 -4 -2 -11 -11
-14 -10 -4 -13 -2 -9 7 4 6 -1 3 -9 -7 -9 -11 -16 -16 -16 -10 0 5 -5 1 -11
-9 -6 -9 -14 -15 -20 -12 -5 4 -9 1 -9 -5 0 -7 -6 -10 -14 -7 -9 4 -16 -3 -20
-16 -5 -18 -8 -20 -16 -7 -8 13 -10 12 -10 -3 0 -10 -4 -16 -9 -12 -5 3 -15 0
-23 -7 -7 -7 -19 -13 -25 -14 -30 -2 -34 -5 -28 -15 4 -6 1 -9 -6 -8 -20 3
-50 -12 -44 -21 3 -5 -4 -6 -15 -3 -15 4 -20 0 -21 -13 0 -11 -3 -14 -5 -7 -7
17 -34 4 -34 -16 0 -13 -2 -13 -9 -2 -6 9 -11 10 -15 2 -4 -6 -12 -9 -17 -6
-5 4 -9 -2 -9 -12 0 -15 -2 -16 -10 -3 -9 14 -15 7 -11 -14 1 -5 -6 -3 -15 5
-15 12 -17 12 -9 0 6 -11 4 -13 -8 -8 -10 3 -17 2 -17 -4 0 -6 -4 -8 -9 -5 -5
4 -11 2 -13 -3 -1 -6 -16 -12 -31 -15 -16 -3 -35 -10 -42 -16 -8 -7 -19 -9
-25 -5 -5 3 -10 1 -10 -5 0 -6 -4 -9 -9 -5 -5 3 -13 0 -16 -6 -4 -5 -13 -8
-21 -5 -8 3 -14 1 -14 -5 0 -6 -7 -9 -15 -5 -8 3 -15 1 -15 -5 0 -6 -7 -8 -16
-5 -9 4 -13 2 -8 -5 4 -8 -1 -9 -16 -4 -15 5 -20 4 -16 -4 5 -7 1 -9 -8 -5 -9
3 -16 1 -16 -5 0 -6 -5 -11 -11 -11 -5 0 -8 4 -4 9 3 5 -8 3 -25 -5 -16 -9
-34 -13 -40 -9 -5 3 -10 1 -10 -5 0 -6 -4 -8 -10 -5 -5 3 -10 0 -10 -7 0 -8
-3 -9 -8 -3 -12 17 -45 11 -53 -10 -4 -11 -8 -14 -8 -6 -1 9 -7 11 -18 6 -10
-4 -24 -8 -30 -8 -7 0 -13 -4 -13 -8 0 -4 -11 -6 -25 -4 -14 1 -27 -1 -30 -5
-2 -4 -18 -6 -35 -5 -16 1 -30 -2 -30 -7 0 -4 -5 -8 -11 -8 -5 0 -7 6 -4 13 4
6 -1 3 -9 -7 -9 -11 -16 -14 -16 -8 0 9 -5 10 -19 2 -14 -7 -22 -7 -26 0 -5 8
-11 7 -20 0 -8 -7 -20 -8 -26 -4 -8 4 -9 3 -5 -4 4 -7 1 -12 -9 -12 -10 0 -13
5 -9 13 6 8 3 8 -9 -2 -9 -7 -24 -11 -32 -7 -9 3 -15 0 -15 -10 0 -14 -2 -14
-16 0 -18 19 -21 19 -30 4 -5 -7 -3 -8 6 -3 9 5 11 4 6 -3 -5 -9 -13 -9 -26
-2 -13 7 -21 7 -25 0 -5 -8 -11 -7 -21 1 -11 9 -14 8 -14 -2 0 -11 -2 -11 -10
1 -7 11 -10 11 -10 2 0 -9 -5 -10 -17 -3 -9 5 -26 6 -37 2 -12 -3 -32 -6 -46
-6 -14 0 -28 -4 -32 -10 -5 -6 -8 -5 -8 2 0 9 -7 10 -25 3 -16 -6 -26 -6 -31
1 -4 7 -10 6 -19 -1 -10 -8 -15 -8 -20 0 -5 8 -11 8 -21 -1 -9 -7 -14 -8 -14
-1 0 6 -13 8 -31 5 -24 -3 -29 -2 -23 9 6 10 5 11 -7 1 -9 -8 -20 -9 -29 -3
-20 13 -30 12 -30 -1 0 -5 5 -7 12 -3 7 4 8 3 4 -5 -6 -9 -11 -9 -23 1 -18 14
-50 17 -75 5 -14 -6 -16 -4 -11 10 6 16 5 16 -9 5 -12 -10 -26 -11 -50 -4 -18
5 -39 7 -47 4 -7 -2 -17 2 -22 9 -7 11 -9 11 -9 1 0 -10 -5 -10 -20 -2 -11 6
-20 7 -20 3 0 -4 -5 -1 -10 7 -8 12 -10 12 -10 1 0 -11 -3 -11 -17 0 -15 12
-16 12 -8 -1 8 -13 7 -13 -8 -1 -9 7 -17 10 -17 6 0 -4 -7 -2 -15 5 -13 11
-15 10 -10 -6 4 -12 1 -11 -8 5 -8 13 -17 20 -20 14 -3 -5 -18 -8 -34 -7 -15
1 -34 3 -41 3 -7 1 -10 6 -6 13 4 7 3 8 -5 4 -6 -4 -19 -2 -28 6 -14 11 -16
11 -9 0 7 -11 4 -12 -12 -3 -12 6 -32 12 -46 13 -15 1 -26 5 -26 9 0 4 -10 5
-22 1 -14 -3 -19 -1 -14 6 5 8 2 10 -8 6 -10 -4 -16 -1 -16 7 0 11 -3 11 -10
-1 -8 -12 -10 -12 -10 -1 0 8 -3 11 -7 8 -3 -4 -13 -1 -21 6 -13 10 -14 9 -7
-3 7 -12 6 -13 -7 -3 -8 7 -18 10 -21 7 -3 -4 -14 1 -23 11 -9 9 -25 14 -35
12 -10 -3 -20 0 -22 6 -3 10 -18 15 -59 19 -10 1 -18 6 -18 11 0 4 -4 6 -9 3
-5 -3 -14 0 -20 8 -6 7 -25 12 -41 11 -21 -1 -36 5 -46 19 -7 11 -14 15 -14 8
0 -10 -5 -9 -16 3 -9 9 -22 14 -30 11 -7 -3 -14 0 -16 5 -2 6 -12 11 -21 13
-10 1 -23 9 -28 17 -5 8 -9 10 -9 6 0 -4 -10 -2 -22 5 -13 7 -26 11 -30 10 -5
-1 -8 3 -8 8 0 6 -9 10 -19 10 -11 0 -23 5 -26 10 -4 6 -11 7 -17 4 -7 -5 -8
-2 -3 6 6 10 4 12 -9 7 -10 -4 -15 -3 -11 3 3 6 -3 10 -15 10 -12 0 -19 4 -15
9 3 6 -3 8 -14 6 -11 -2 -22 3 -25 11 -3 8 -12 14 -21 14 -8 0 -15 5 -15 12 0
6 -3 8 -7 5 -3 -4 -12 1 -20 11 -10 11 -12 12 -8 2 4 -8 -3 -4 -15 10 -12 14
-19 18 -15 10 6 -13 5 -13 -7 0 -7 8 -20 16 -28 18 -8 2 -18 9 -22 15 -4 7 -8
8 -8 3 0 -4 -9 2 -21 15 -11 13 -18 17 -14 9 4 -8 -1 -6 -9 4 -9 11 -16 17
-16 13 0 -7 -11 1 -45 31 -8 7 -20 10 -26 6 -7 -4 -10 -3 -7 2 3 5 -5 19 -18
31 -15 15 -24 18 -27 10 -3 -7 -6 -3 -6 7 -1 11 -4 17 -7 13 -8 -8 -33 16 -27
25 2 4 -3 5 -11 2 -10 -4 -16 -1 -16 7 0 7 -3 9 -7 6 -3 -4 -11 3 -17 16 -7
12 -18 22 -26 22 -8 0 -19 6 -23 13 -5 7 -13 9 -19 6 -6 -4 -8 -3 -5 3 4 6 0
19 -8 29 -15 19 -15 18 -10 -1 5 -16 3 -16 -6 3 -7 12 -18 22 -26 22 -7 0 -13
7 -13 17 0 9 -3 14 -6 10 -8 -8 -44 25 -38 35 3 5 0 7 -8 6 -7 -2 -12 3 -10
11 2 9 -4 12 -18 8 -18 -5 -19 -3 -9 9 7 8 8 14 3 13 -24 -4 -36 2 -30 17 3 8
2 13 -2 10 -4 -2 -19 5 -32 16 -14 11 -19 16 -11 12 9 -5 12 -3 7 4 -4 7 -14
12 -23 12 -9 0 -14 3 -10 6 3 3 -8 19 -24 35 -16 15 -29 33 -29 39 0 5 -3 9
-8 7 -4 -1 -8 2 -9 6 -4 14 -68 74 -75 70 -5 -2 -8 0 -8 5 0 5 -16 29 -36 55
-20 25 -33 51 -29 56 4 7 0 8 -11 4 -14 -5 -16 -3 -11 11 4 10 3 15 -3 11 -5
-3 -21 12 -35 35 -14 22 -31 40 -38 40 -9 0 -9 2 0 8 9 6 5 13 -12 26 -14 10
-25 23 -25 29 0 5 -8 16 -17 24 -12 9 -13 12 -3 8 8 -4 4 2 -10 13 -14 12 -22
24 -18 28 4 3 -3 15 -15 25 -12 10 -16 18 -9 19 8 0 6 6 -5 19 -35 38 -42 49
-36 55 4 3 1 6 -6 6 -7 0 -9 5 -6 10 3 6 1 10 -4 10 -6 0 -11 7 -11 15 0 8 -3
15 -7 15 -11 0 -45 61 -38 68 3 3 5 -1 5 -8 0 -7 3 -10 7 -6 4 4 -3 16 -17 28
-14 11 -18 17 -10 13 10 -4 9 -1 -3 8 -20 16 -23 31 -4 22 6 -4 3 1 -7 9 -11
9 -16 16 -12 16 4 0 1 7 -8 15 -8 9 -12 23 -9 32 4 11 3 14 -5 9 -8 -5 -12 1
-12 15 0 12 -7 27 -15 33 -9 6 -17 21 -18 34 0 12 -8 22 -15 22 -11 0 -12 3
-3 14 7 8 8 16 2 18 -5 1 -11 12 -13 23 -1 11 -7 23 -12 26 -5 4 -8 18 -8 33
0 15 -5 23 -11 19 -6 -4 -8 0 -4 10 3 10 2 17 -3 17 -6 0 -9 3 -9 8 1 4 0 9
-1 12 -1 3 -3 14 -5 25 -2 11 -9 21 -15 23 -7 3 -7 9 2 20 10 12 10 14 1 8 -7
-4 -13 -2 -13 3 0 21 -2 26 -12 39 -6 6 -7 12 -3 12 4 0 2 7 -5 15 -10 12 -10
15 1 16 10 0 11 2 1 6 -6 2 -10 9 -6 14 3 5 1 9 -4 9 -5 0 -9 6 -9 13 -3 49
-8 77 -16 77 -5 0 -5 10 -2 21 5 16 4 19 -6 14 -9 -6 -11 -3 -6 8 4 10 1 17
-6 17 -8 0 -6 4 3 10 8 5 10 10 4 10 -7 0 -15 7 -18 16 -4 10 -2 13 7 8 8 -5
7 -2 -2 9 -7 9 -10 17 -7 17 4 0 4 6 -1 13 -4 6 -7 21 -8 33 0 11 -6 28 -14
38 -12 14 -12 16 4 10 14 -6 16 -4 9 7 -4 8 -9 19 -11 24 -1 6 -4 20 -7 33 -3
12 0 22 5 22 6 0 3 7 -5 16 -18 18 -22 39 -4 28 8 -5 8 -3 2 7 -5 8 -10 28
-11 44 0 17 -2 30 -3 30 -2 0 -3 14 -4 30 -1 17 -6 36 -10 43 -4 7 -3 12 2 12
12 0 8 35 -6 53 -7 7 -9 17 -5 21 12 12 13 46 2 46 -8 0 -8 5 1 15 10 12 10
15 0 15 -10 0 -10 3 -1 14 8 10 9 16 1 21 -7 4 -7 13 1 27 8 15 8 19 0 14 -13
-9 -14 4 -2 24 6 8 7 19 3 25 -10 15 -9 55 1 55 5 0 4 6 -2 13 -6 8 -8 17 -4
21 11 11 10 40 -2 48 -6 5 -6 8 1 8 7 0 11 14 8 35 -2 23 1 33 7 29 7 -4 7 1
0 15 -8 15 -9 21 -1 21 6 0 8 5 5 10 -4 6 -12 7 -18 3 -8 -5 -8 -2 0 9 7 8 9
19 5 24 -4 4 2 2 13 -6 19 -15 19 -15 2 13 -10 15 -14 27 -9 27 5 0 10 23 11
51 1 28 6 60 12 70 5 10 7 19 4 19 -3 0 -1 10 6 21 8 15 8 19 0 15 -8 -5 -8 0
-2 16 4 13 6 29 3 37 -3 8 0 11 7 7 7 -5 9 -1 5 9 -4 8 0 23 7 32 12 14 12 16
0 8 -11 -6 -13 -4 -6 11 4 10 8 29 8 42 1 12 5 22 10 22 5 0 7 7 3 15 -3 8 -1
15 4 15 5 0 6 7 3 17 -4 10 -2 14 4 10 5 -3 10 0 10 8 0 8 -4 12 -9 8 -6 -3
-2 9 7 27 9 17 14 34 11 38 -3 3 -1 11 5 19 6 7 8 13 4 13 -4 0 -1 8 6 17 9
11 10 14 2 9 -9 -5 -11 -2 -7 8 3 9 11 16 16 16 6 0 4 8 -3 17 -10 11 -10 14
-1 9 12 -7 16 4 13 32 -1 6 3 12 8 12 6 0 8 7 5 15 -4 8 -1 15 5 15 6 0 8 7 4
17 -5 11 -3 14 6 8 10 -5 11 -2 6 14 -4 12 -2 21 4 21 6 0 11 9 11 21 0 11 4
17 10 14 6 -4 7 1 3 10 -3 10 0 21 8 26 12 7 12 9 -1 9 -12 1 -11 3 3 11 9 5
17 15 17 20 0 6 -6 7 -12 3 -7 -4 -5 2 5 13 9 11 14 23 10 26 -3 4 -1 7 5 7 7
0 11 3 11 8 -4 21 2 32 14 26 9 -6 9 -4 -1 8 -10 13 -10 17 3 22 9 3 13 10 10
16 -3 5 -1 10 4 10 6 0 11 7 11 16 0 9 8 23 17 31 12 10 13 12 3 8 -8 -4 -6 1
4 9 11 9 14 16 7 16 -7 0 -9 5 -6 10 4 6 12 7 18 3 7 -4 5 2 -3 12 -8 10 -10
16 -4 12 14 -8 39 37 29 54 -6 8 -4 10 5 4 10 -6 12 -4 7 9 -4 9 -3 15 1 12 4
-2 15 9 25 25 10 18 12 27 4 23 -11 -7 4 12 47 56 11 11 16 23 13 27 -4 3 -7
1 -7 -5 0 -7 -6 -12 -12 -12 -7 1 -2 10 11 20 13 11 19 20 15 20 -5 0 1 7 13
15 13 9 20 22 17 30 -4 8 1 18 10 21 9 3 13 10 10 15 -3 5 2 12 10 15 9 3 14
10 11 14 -3 5 3 13 12 19 10 6 14 11 8 11 -5 0 1 10 15 21 14 11 18 18 10 14
-8 -4 -4 3 10 15 14 12 18 19 10 15 -8 -4 -6 1 5 10 11 9 19 21 17 26 -1 5 5
9 14 9 10 0 14 5 10 16 -3 8 -2 13 3 10 5 -3 14 1 21 9 11 13 10 15 -6 10 -12
-4 -11 -1 4 6 13 7 21 18 18 26 -3 7 -2 12 2 12 20 -3 32 2 30 14 -2 6 2 11 9
10 7 -2 10 4 7 12 -4 8 -1 15 5 15 6 0 11 6 11 14 0 8 4 18 10 21 6 4 7 -1 4
-12 -6 -15 -4 -15 9 2 8 11 13 23 11 27 -3 5 2 8 10 8 9 0 16 4 16 9 0 14 67
80 74 73 4 -3 4 2 0 12 -5 14 -4 17 4 12 11 -6 17 5 13 27 0 4 2 6 6 6 21 -3
33 2 28 12 -4 6 3 13 15 16 13 3 19 11 16 20 -3 8 -1 11 4 8 5 -3 18 3 29 14
11 11 22 16 26 13 4 -4 5 -2 3 5 -3 12 68 83 84 83 5 0 6 5 3 10 -3 6 4 10 15
10 16 0 20 5 16 15 -3 8 -1 15 5 15 6 0 22 9 36 20 14 11 29 17 33 15 5 -3 12
0 16 6 4 8 3 9 -4 5 -7 -4 -12 -3 -12 3 0 10 38 27 53 23 4 -1 6 1 5 5 -2 5 2
10 7 13 14 6 43 30 72 60 14 14 22 18 18 10 -4 -8 2 -5 14 8 12 12 26 22 32
22 6 0 7 4 4 10 -4 6 1 7 11 3 12 -4 15 -3 10 6 -6 8 -2 11 10 9 11 -2 18 2
17 10 -2 7 7 12 22 12 14 0 28 7 31 15 4 8 13 15 20 15 8 0 17 7 20 15 5 12 9
13 21 4 11 -10 13 -9 11 2 -2 8 4 13 15 13 14 -2 15 1 6 12 -8 10 -7 12 10 9
12 -2 21 0 21 6 0 5 7 9 16 9 8 0 13 4 10 9 -3 5 1 12 10 15 8 3 13 2 10 -2
-3 -5 1 -9 9 -9 8 0 13 3 12 6 -1 3 3 8 8 10 6 2 16 11 23 20 8 9 11 10 7 4
-9 -18 5 -16 19 1 6 8 20 16 31 18 11 2 26 10 33 18 12 13 13 13 7 0 -4 -9 -1
-8 8 3 11 14 16 15 20 5 4 -9 6 -7 6 4 1 9 6 20 13 24 7 4 8 3 4 -4 -4 -7 -3
-12 2 -12 6 0 12 7 15 15 4 8 15 12 27 10 11 -2 18 0 15 6 -4 5 3 9 14 9 12 0
21 5 21 11 0 6 6 9 12 7 7 -3 19 2 27 9 11 12 15 12 22 1 6 -9 9 -9 9 -1 0 6
9 10 19 8 14 -2 18 1 15 10 -4 10 1 13 21 9 17 -3 24 -1 20 6 -4 6 6 10 25 10
21 0 29 4 24 12 -5 8 -2 9 9 5 9 -3 19 -2 23 4 3 6 13 8 21 5 9 -4 11 -2 7 6
-5 8 -2 9 9 5 9 -3 19 -2 22 3 3 5 13 6 22 3 11 -5 14 -3 8 6 -6 10 -3 11 15
1 12 -7 20 -7 16 -2 -8 13 49 26 65 16 7 -4 9 -3 6 3 -4 6 0 13 8 17 8 3 15 0
15 -7 0 -8 3 -9 8 -1 4 6 17 10 29 9 12 -1 20 2 17 6 -7 12 20 17 40 6 15 -7
18 -6 13 5 -4 11 1 15 16 14 12 -1 28 2 35 8 10 7 16 5 23 -5 6 -10 9 -11 9
-1 0 7 5 10 10 7 6 -3 10 0 10 7 0 9 3 9 10 -2 5 -8 10 -10 10 -4 0 6 10 10
23 9 12 -1 29 1 38 6 9 5 20 4 26 -2 8 -8 13 -7 18 2 6 8 4 10 -5 4 -9 -5 -11
-4 -6 4 5 7 13 8 23 2 21 -11 55 -2 46 13 -5 7 -2 7 8 -1 9 -7 20 -8 28 -3 8
4 25 6 38 4 18 -4 23 -1 17 8 -5 8 -1 7 11 -2 14 -12 19 -12 23 -2 3 10 7 10
18 2 7 -7 19 -8 26 -4 7 5 21 7 32 5 12 -2 16 1 11 10 -6 9 -4 10 6 3 8 -5 35
-9 62 -9z m54 -1449 c-4 7 0 14 8 18 8 3 17 1 20 -4 7 -12 45 -8 45 5 0 6 3 7
8 0 9 -13 32 -18 32 -7 0 5 7 9 15 9 8 0 12 -4 10 -7 -3 -4 10 -8 28 -8 17 0
44 -3 60 -5 15 -2 27 0 27 6 0 5 7 3 17 -4 19 -16 23 -16 34 3 7 10 9 9 9 -4
0 -19 20 -20 32 -3 5 6 8 6 8 -1 0 -11 6 -12 65 -15 19 0 33 -4 30 -8 -2 -5
11 -7 30 -6 19 2 33 -1 30 -5 -3 -5 -1 -11 5 -15 5 -3 10 -1 10 6 0 9 3 9 14
0 7 -6 22 -8 31 -4 14 5 16 3 10 -7 -6 -10 -4 -12 8 -7 9 3 29 -1 46 -9 16 -8
40 -17 52 -19 11 -2 28 -10 37 -17 13 -11 14 -11 7 2 -7 12 -5 12 11 -1 10 -9
25 -14 33 -11 8 3 11 0 7 -7 -5 -7 2 -11 18 -11 13 0 26 -5 28 -11 3 -9 22
-15 51 -18 5 -1 6 -5 3 -10 -4 -5 2 -8 11 -7 10 2 26 -5 37 -15 10 -10 23 -16
28 -13 4 3 8 -3 8 -13 0 -14 2 -15 9 -5 6 11 10 10 15 -3 3 -9 13 -15 20 -12
8 3 17 -1 20 -9 3 -9 10 -12 16 -9 5 3 10 -1 10 -9 0 -9 7 -13 20 -11 12 2 20
-2 20 -10 0 -7 13 -19 29 -26 20 -9 27 -18 23 -28 -5 -14 -3 -14 11 -2 15 12
17 11 17 -4 0 -10 3 -16 6 -13 8 9 42 -25 36 -36 -2 -4 5 -5 17 -1 15 4 21 3
19 -7 -2 -7 3 -12 9 -11 7 2 12 0 12 -5 -1 -4 -1 -14 0 -22 1 -13 2 -13 11 0
5 8 10 10 10 4 0 -5 7 -19 16 -30 8 -10 13 -12 9 -4 -4 8 0 6 9 -4 8 -10 13
-23 9 -29 -3 -6 -1 -7 5 -4 13 9 44 -2 37 -13 -7 -12 46 -60 58 -53 5 3 4 -5
-3 -17 -8 -15 -8 -20 -1 -16 12 8 41 -16 41 -34 0 -6 5 -8 10 -5 9 5 14 -7 11
-27 0 -4 9 -10 21 -13 16 -6 18 -9 7 -16 -11 -7 -10 -9 5 -9 11 0 16 -3 12 -7
-3 -4 4 -13 16 -20 14 -7 17 -12 9 -13 -11 0 -9 -4 5 -15 10 -8 15 -15 9 -15
-7 0 -7 -3 0 -8 17 -13 61 -66 48 -58 -9 5 -11 2 -7 -8 3 -9 9 -15 12 -14 20
2 25 -3 12 -12 -13 -8 -12 -10 4 -10 11 0 16 -5 13 -14 -3 -8 1 -17 10 -20 9
-4 13 -9 10 -12 -3 -4 1 -13 9 -21 9 -9 12 -23 8 -35 -4 -13 -2 -18 4 -14 6 4
16 -3 22 -15 10 -17 9 -20 -2 -14 -7 3 -5 0 5 -8 10 -8 16 -21 15 -28 -2 -8 2
-13 9 -12 7 2 10 -6 8 -18 -3 -12 4 -29 13 -38 10 -9 11 -11 3 -6 -12 8 -12 7
-3 -11 6 -12 8 -24 5 -28 -3 -3 -1 -6 6 -6 8 0 11 -6 7 -16 -3 -8 -2 -13 3
-10 5 3 14 -8 20 -24 7 -21 7 -29 0 -24 -6 3 -4 -7 5 -24 8 -16 12 -32 9 -36
-4 -3 -1 -6 6 -6 7 0 9 -5 6 -10 -4 -6 -12 -8 -18 -4 -7 3 -1 -4 12 -15 13
-12 17 -21 10 -21 -8 0 -6 -5 6 -13 13 -10 15 -16 6 -21 -9 -6 -9 -11 0 -22 6
-8 8 -14 5 -14 -4 0 -2 -9 4 -19 7 -14 6 -21 -3 -24 -9 -4 -9 -8 2 -15 8 -6
12 -21 9 -40 -3 -19 -1 -29 6 -25 5 4 7 0 3 -9 -3 -9 0 -21 6 -27 8 -8 8 -11
-1 -11 -10 0 -10 -5 -2 -20 8 -14 8 -20 0 -20 -7 0 -8 -5 -3 -12 11 -18 10
-32 -2 -40 -6 -5 -5 -8 3 -8 8 0 11 -9 8 -25 -3 -15 0 -25 7 -26 7 0 3 -4 -8
-9 -11 -5 -15 -9 -9 -9 7 -1 15 -8 18 -17 4 -10 2 -13 -6 -8 -8 5 -9 2 -5 -9
4 -10 1 -17 -6 -17 -8 0 -9 -3 -1 -8 12 -7 15 -42 4 -42 -3 0 -6 -9 -6 -20 0
-11 4 -20 8 -20 5 0 4 -9 -2 -20 -7 -13 -7 -20 -1 -20 6 0 8 -7 5 -15 -4 -8
-11 -12 -16 -9 -6 4 -5 -4 2 -16 11 -20 10 -22 -3 -17 -11 4 -14 2 -10 -8 3
-8 10 -12 17 -8 6 4 5 -1 -3 -10 -7 -9 -11 -26 -8 -37 3 -10 -1 -25 -9 -31
-11 -9 -11 -15 -3 -25 8 -10 8 -14 1 -14 -7 0 -9 -7 -5 -17 4 -10 2 -14 -5 -9
-7 4 -9 -2 -6 -19 2 -14 1 -25 -4 -25 -5 0 -9 -6 -10 -12 -3 -43 -7 -58 -14
-58 -5 0 -4 -9 2 -20 9 -16 8 -18 -5 -14 -11 5 -13 2 -9 -10 4 -9 1 -16 -6
-16 -9 0 -9 -4 1 -17 10 -11 10 -14 2 -9 -12 7 -17 -6 -16 -41 0 -6 -5 -9 -12
-7 -8 3 -11 -5 -10 -25 2 -26 0 -29 -13 -18 -13 10 -14 9 -4 -10 9 -17 9 -22
-3 -27 -8 -3 -15 -9 -14 -13 3 -18 -14 -52 -23 -47 -5 3 -8 0 -7 -7 4 -24 -12
-67 -28 -73 -8 -3 -11 -10 -8 -16 3 -6 0 -13 -9 -16 -9 -3 -12 -12 -9 -22 4
-9 3 -14 -2 -10 -13 12 -46 -38 -38 -58 4 -12 3 -15 -5 -10 -11 7 -17 -6 -13
-27 1 -5 -3 -6 -9 -2 -5 3 -10 1 -10 -5 0 -6 -5 -8 -12 -4 -7 4 -8 3 -4 -4 4
-6 -2 -20 -14 -32 -11 -11 -20 -27 -20 -36 0 -10 -5 -14 -16 -10 -8 3 -12 2
-9 -4 3 -6 1 -10 -4 -10 -6 0 -10 -3 -9 -7 3 -8 -16 -30 -94 -112 -20 -22 -33
-42 -30 -46 4 -4 -2 -5 -13 -3 -12 2 -19 -2 -18 -9 2 -7 -9 -16 -23 -19 -19
-5 -22 -9 -12 -15 10 -7 10 -9 0 -9 -6 0 -22 -11 -34 -25 -16 -19 -24 -22 -30
-13 -5 9 -8 8 -8 -4 0 -10 -5 -18 -11 -18 -5 0 -7 -5 -3 -11 4 -7 1 -10 -7 -7
-8 3 -24 -5 -35 -18 -12 -12 -25 -20 -28 -17 -3 3 -8 -2 -12 -11 -3 -9 -10
-14 -14 -11 -4 3 -10 -2 -13 -9 -3 -8 -16 -20 -28 -26 -17 -10 -20 -9 -14 2 3
7 0 5 -8 -4 -8 -10 -17 -15 -20 -11 -4 3 -7 1 -7 -6 0 -7 -4 -9 -10 -6 -5 3
-10 1 -10 -5 0 -6 -11 -15 -25 -22 -13 -6 -21 -16 -18 -22 4 -6 -1 -5 -10 3
-12 9 -17 10 -17 2 0 -7 -4 -10 -9 -7 -5 3 -11 0 -14 -8 -3 -8 -23 -20 -44
-26 -21 -7 -45 -19 -54 -26 -12 -11 -18 -11 -29 -1 -8 7 -11 8 -7 1 8 -13 -20
-27 -34 -18 -5 3 -9 1 -9 -4 0 -6 -7 -13 -16 -16 -10 -4 -13 -2 -8 6 4 7 -7 2
-24 -11 -18 -12 -36 -19 -42 -16 -5 3 -10 1 -10 -6 0 -7 -3 -9 -6 -6 -4 3 -15
2 -25 -4 -14 -7 -19 -6 -19 3 0 10 -3 10 -9 -1 -5 -8 -16 -11 -26 -8 -9 4 -14
3 -11 -2 3 -5 -5 -11 -19 -13 -13 -3 -26 0 -29 6 -2 6 -5 3 -5 -6 -1 -10 -6
-18 -12 -18 -5 0 -7 6 -3 13 5 8 2 8 -9 -2 -9 -7 -17 -10 -17 -5 0 4 -5 3 -12
-4 -8 -8 -17 -8 -31 -1 -12 7 -17 7 -13 1 3 -5 -3 -12 -14 -15 -11 -3 -18 -1
-14 4 3 5 0 9 -5 9 -6 0 -11 -4 -11 -10 0 -5 -5 -10 -11 -10 -5 0 -7 6 -3 13
6 9 5 9 -8 -1 -20 -16 -78 -23 -78 -8 0 6 -5 3 -11 -7 -10 -18 -11 -18 -32 0
-11 10 -17 13 -14 7 11 -19 -19 -24 -44 -7 -12 9 -19 12 -16 6 9 -14 -45 -25
-57 -12 -12 11 -29 12 -23 2 3 -5 -5 -8 -18 -8 -13 0 -23 2 -22 5 1 3 -2 5 -8
5 -5 0 -9 -4 -7 -8 1 -4 -7 -3 -18 3 -11 6 -20 7 -20 3 0 -4 -5 -1 -10 7 -5 8
-10 10 -10 4 0 -6 -7 -11 -15 -11 -8 0 -15 5 -15 10 0 5 -6 7 -14 4 -7 -3 -19
0 -26 6 -10 9 -11 9 -6 0 3 -6 2 -14 -4 -18 -5 -3 -10 2 -10 12 0 15 -2 16
-10 3 -7 -12 -10 -12 -10 -1 0 7 -6 11 -13 8 -8 -3 -20 -1 -27 3 -8 5 -22 4
-33 -2 -14 -7 -17 -7 -13 1 4 7 -1 11 -13 11 -11 0 -23 5 -26 10 -4 7 -12 7
-25 0 -24 -13 -40 -13 -20 0 12 8 9 10 -13 10 -16 0 -26 4 -23 9 6 10 -37 6
-56 -5 -10 -6 -10 -4 0 9 12 14 11 16 -7 12 -12 -2 -21 0 -21 5 0 5 -9 7 -20
5 -12 -2 -23 2 -26 9 -3 8 -14 12 -25 9 -14 -4 -19 0 -19 13 0 14 -2 16 -9 6
-7 -11 -11 -11 -23 2 -9 8 -18 12 -22 9 -3 -4 -6 -1 -6 5 0 7 -5 12 -11 12 -5
0 -7 -6 -4 -12 4 -7 -2 -4 -12 8 -10 11 -26 20 -35 18 -10 -1 -15 3 -12 11 4
9 0 12 -13 9 -11 -3 -25 1 -32 10 -7 8 -20 12 -28 9 -10 -4 -14 -2 -9 5 3 6 2
13 -4 17 -5 3 -10 1 -10 -5 0 -6 -11 0 -25 14 -13 13 -34 27 -45 31 -11 3 -20
11 -20 16 0 6 -4 7 -10 4 -5 -3 -10 -1 -10 5 0 7 -7 9 -16 6 -8 -3 -12 -2 -9
4 6 9 -8 14 -27 11 -8 -1 -12 15 -9 32 1 5 -3 6 -9 2 -5 -3 -10 -1 -10 5 0 6
-4 8 -10 5 -5 -3 -10 -1 -10 5 0 6 -4 8 -10 5 -5 -3 -10 1 -10 10 0 9 -4 13
-10 10 -5 -3 -10 -1 -10 5 0 6 -4 8 -10 5 -5 -3 -10 -1 -10 5 0 17 -51 60 -63
53 -5 -3 -7 -2 -4 4 3 5 -3 16 -15 24 -36 25 -48 40 -42 51 4 6 3 8 -3 5 -5
-3 -16 3 -23 14 -8 10 -20 19 -27 19 -7 0 -12 3 -12 8 1 4 1 14 0 22 -1 13 -2
13 -12 0 -9 -12 -10 -11 -6 8 3 12 2 20 -3 17 -4 -3 -18 8 -31 24 -13 16 -27
27 -31 25 -5 -3 -7 -2 -6 3 4 17 -14 53 -28 53 -8 0 -14 9 -14 20 0 11 -6 20
-13 20 -8 0 -14 7 -15 15 -1 8 -3 21 -4 29 -1 8 -8 12 -16 8 -9 -3 -13 -1 -9
5 4 6 0 16 -8 23 -8 7 -15 19 -15 26 0 8 -5 14 -11 14 -5 0 -7 5 -4 10 3 6 1
10 -5 10 -6 0 -8 5 -5 10 3 6 1 10 -5 10 -7 0 -9 7 -6 15 3 9 -1 18 -9 21 -8
4 -15 12 -15 20 0 8 -4 14 -10 14 -5 0 -7 7 -4 15 4 8 1 15 -6 15 -7 0 -10 6
-7 14 3 8 -1 20 -9 26 -8 7 -14 9 -14 5 0 -5 -3 -6 -6 -3 -3 4 0 16 6 28 8 15
8 20 1 16 -6 -4 -11 0 -11 8 0 9 -5 16 -11 16 -8 0 -8 4 0 14 9 11 9 16 0 22
-8 5 -9 3 -4 -6 5 -8 4 -11 -2 -7 -6 4 -13 16 -16 27 -3 11 -1 18 4 14 5 -3 6
2 3 10 -3 9 -10 14 -14 11 -5 -3 -7 6 -6 20 2 13 -1 22 -6 19 -5 -3 -9 0 -7 7
3 25 -1 40 -9 35 -4 -2 -8 4 -8 14 0 10 5 16 11 12 5 -3 2 7 -9 22 -10 16 -13
25 -6 21 7 -4 4 4 -5 19 -14 20 -14 26 -4 26 9 0 10 3 4 8 -13 9 -18 29 -19
70 -1 17 -4 32 -8 32 -3 0 -4 10 0 22 4 16 2 19 -9 13 -12 -8 -12 -6 0 8 9 12
10 17 2 17 -9 0 -9 5 -1 20 8 14 8 20 0 20 -6 0 -8 5 -5 10 3 6 0 10 -7 11
-10 0 -11 2 0 6 10 4 10 8 1 19 -7 9 -8 14 -1 14 11 0 11 18 -1 38 -5 6 -4 12
0 12 5 0 9 9 9 20 0 11 -4 20 -8 20 -5 0 -4 10 3 21 8 16 8 20 -1 14 -9 -6 -9
-3 -2 12 6 11 7 25 2 33 -5 8 -6 19 -2 25 9 14 9 38 -1 52 -4 6 -3 14 3 18 6
3 7 11 4 17 -5 8 -1 9 12 5 16 -6 17 -5 4 5 -18 15 -15 52 3 42 8 -5 8 -3 0 6
-9 10 -10 17 -2 27 9 10 8 13 -2 13 -11 0 -11 2 1 10 8 5 11 10 6 10 -5 0 -1
9 8 19 13 14 14 21 5 27 -7 4 -10 3 -5 -4 3 -6 2 -13 -3 -17 -13 -8 -5 33 10
51 9 11 8 14 -2 15 -10 0 -11 2 -1 6 6 2 10 9 6 14 -3 5 -1 9 5 9 6 0 8 7 5
15 -4 9 0 15 7 15 12 0 12 2 1 9 -11 6 -10 11 3 25 9 9 12 16 6 16 -6 0 -11 5
-11 11 0 5 5 7 11 3 7 -4 10 4 7 22 -2 23 1 29 15 28 14 -2 15 1 7 11 -9 10
-7 20 5 39 10 14 13 26 9 26 -5 0 -1 5 9 11 14 8 15 14 7 24 -8 10 -7 16 7 24
10 6 14 11 9 11 -4 0 -1 12 9 26 9 14 14 32 11 40 -3 8 -2 13 3 9 5 -3 16 8
25 25 9 20 10 28 3 24 -7 -3 -2 3 10 14 12 11 19 22 16 26 -3 3 1 14 10 24 10
10 14 22 10 27 -5 4 -3 5 4 1 8 -4 15 2 19 19 3 14 10 25 16 25 5 0 6 5 3 10
-3 6 -1 10 4 10 6 0 11 7 11 15 0 8 5 15 10 15 6 0 10 7 10 15 0 9 6 12 15 9
11 -5 13 -2 9 10 -3 9 -1 16 6 16 6 0 8 5 5 10 -3 6 -1 10 5 10 6 0 8 5 4 13
-5 7 -1 7 12 -3 10 -8 16 -10 12 -6 -4 5 -2 16 5 24 10 13 9 14 -3 7 -8 -5 4
10 28 33 24 23 40 46 37 52 -4 6 -3 10 2 9 22 -4 32 2 26 16 -3 9 -2 15 3 13
11 -4 54 38 54 53 0 5 5 7 10 4 6 -3 10 -1 10 6 0 7 3 10 6 6 10 -10 32 17 26
32 -3 9 -1 12 6 7 6 -4 28 11 49 34 21 22 46 40 56 40 11 0 15 4 11 12 -5 8
-2 9 9 5 10 -4 16 -2 14 6 -1 7 4 11 12 9 8 -2 11 3 8 12 -4 10 -1 13 8 9 8
-3 18 2 21 11 3 9 10 13 15 10 5 -3 9 0 9 7 0 7 3 9 7 6 3 -4 13 2 20 13 8 11
18 18 23 15 5 -3 16 2 24 11 9 8 16 12 16 8 0 -4 7 1 16 12 8 10 13 13 9 7 -4
-9 -1 -11 9 -7 9 3 13 10 10 15 -5 8 9 13 29 10 4 0 7 3 7 9 0 5 7 6 17 3 11
-4 14 -3 9 5 -5 8 2 12 19 12 17 0 24 4 19 12 -5 8 0 9 15 5 15 -3 24 0 28 9
3 8 12 13 20 10 8 -3 11 -1 8 4 -3 6 5 10 19 10 13 0 31 6 39 14 11 11 17 12
27 3 10 -9 11 -9 6 1 -6 11 11 17 37 13 4 0 7 4 7 11 0 6 3 8 7 5 3 -4 13 -1
21 6 13 9 14 9 8 0 -5 -9 -2 -11 8 -7 9 3 13 10 10 15 -3 5 3 6 12 2 13 -5 15
-3 9 8 -7 12 -6 12 7 1 12 -9 18 -10 23 -2 5 8 11 7 23 -2 12 -10 14 -10 8 0
-6 10 7 17 17 10 2 -2 11 3 20 11 14 11 17 11 17 0 0 -12 2 -12 9 0 5 7 14 10
20 7 6 -4 11 -1 11 6 0 9 3 9 10 -2 5 -8 10 -10 10 -5 0 6 15 12 33 13 44 3
75 9 89 18 6 4 8 3 5 -3 -4 -6 5 -10 22 -9 20 1 27 5 23 15 -3 9 4 8 24 -5 15
-11 25 -14 21 -8z m4993 -996 c0 -5 -5 -10 -11 -10 -5 0 -7 5 -4 10 3 6 8 10
11 10 2 0 4 -4 4 -10z m240 0 c0 -5 -5 -10 -11 -10 -5 0 -7 5 -4 10 3 6 8 10
11 10 2 0 4 -4 4 -10z m240 0 c0 -5 -5 -10 -11 -10 -5 0 -7 5 -4 10 3 6 8 10
11 10 2 0 4 -4 4 -10z m240 0 c0 -5 -5 -10 -11 -10 -5 0 -7 5 -4 10 3 6 8 10
11 10 2 0 4 -4 4 -10z m1200 0 c0 -5 -5 -10 -11 -10 -5 0 -7 5 -4 10 3 6 8 10
11 10 2 0 4 -4 4 -10z m240 0 c0 -5 -5 -10 -11 -10 -5 0 -7 5 -4 10 3 6 8 10
11 10 2 0 4 -4 4 -10z m240 0 c0 -5 -5 -10 -11 -10 -5 0 -7 5 -4 10 3 6 8 10
11 10 2 0 4 -4 4 -10z m240 0 c0 -5 -5 -10 -11 -10 -5 0 -7 5 -4 10 3 6 8 10
11 10 2 0 4 -4 4 -10z m240 0 c0 -5 -5 -10 -11 -10 -5 0 -7 5 -4 10 3 6 8 10
11 10 2 0 4 -4 4 -10z m240 0 c0 -5 -5 -10 -11 -10 -5 0 -7 5 -4 10 3 6 8 10
11 10 2 0 4 -4 4 -10z m-10900 -304 c0 -3 -4 -8 -10 -11 -5 -3 -10 -1 -10 4 0
6 5 11 10 11 6 0 10 -2 10 -4z m-1400 -2220 c0 -2 -7 -7 -16 -10 -8 -3 -12 -2
-9 4 6 10 25 14 25 6z"/>
<path d="M2210 8525 c0 -5 5 -17 10 -25 5 -8 10 -10 10 -5 0 6 -5 17 -10 25
-5 8 -10 11 -10 5z"/>
<path d="M9579 9863 c-13 -16 -12 -17 4 -4 9 7 17 15 17 17 0 8 -8 3 -21 -13z"/>
</g>
</svg>
